<svg xmlns="http://www.w3.org/2000/svg" width="56.54" height="56.54" viewBox="0 0 56.54 56.54"><defs><style>.cls-1{fill:#c76b43;}.cls-2{fill:#fff;}</style></defs><g id="圖層_2" data-name="圖層 2"><g id="圖層_1-2" data-name="圖層 1"><circle class="cls-1" cx="28.27" cy="28.27" r="28.27"/><path class="cls-2" d="M33.53,36.21c1.48.82,2.86,1.51,4.16,2.33a7,7,0,0,1,1.87,1.69,1.54,1.54,0,0,1,.1,1.45c-.23.31-.94.36-1.44.38a1.88,1.88,0,0,1-.94-.42Q31.4,37.8,25.53,33.93c-.19-.12-.31-.34-.32-.86.81.23,1.62.45,2.41.7.57.19,1.12.46,1.67.65A28.67,28.67,0,0,1,33.53,36.21Z"/><path class="cls-2" d="M30.33,37.61a14.82,14.82,0,0,1-1.81.94c-2.81,1-5.62,2.07-8.45,3-2.43.84-2.64.73-4.18-1.67A28.5,28.5,0,0,0,19,39.34c.4-.12,1-.65,1-1,.06-5.23,0-10.46,0-15.8l-6.8,2.56-.31-.61a16.83,16.83,0,0,1,1.42-1,31.67,31.67,0,0,0,11.27-9.21c.49-.68.92-1.42,1.45-2.24.91.71,1.94,1,2.38,2.38.32,1,1.6,1.92,2.65,2.51,2.87,1.59,5.84,3,8.78,4.45.52.26,1.08.44,1.66.67-1.56,1.89-2.61,2.1-4.61,1.17a26.56,26.56,0,0,1-9.62-7.57L26.13,18c1.59,1.21,4.55,1.14,3.74,4.52.78-.11,1.45-.22,2.13-.29a7.81,7.81,0,0,1,2-.13c1.24.18,1.58.81,1.38,2.2a49.12,49.12,0,0,0-.14,6.43c0,1.94-.26,2.18-2.17,1.92a6.32,6.32,0,0,0-1.87-.68c-2.79-.07-5.59,0-8.51,0v6.75l7.42-1.61ZM22.77,26.17h9.75c.32-2,.32-2-1.48-2-2.24,0-4.49,0-6.73,0C22.49,24.21,22.49,24.21,22.77,26.17Zm9.72,1.89c-3,0-5.84,0-8.73,0-.82,0-1.17.25-1.16,1.11s.49.94,1.16.93c2.45,0,4.9-.07,7.34,0C32.59,30.17,33,29.63,32.49,28.06ZM25.72,18.4l-4.43,3.21,0,.52,6.63.42Z"/><path class="cls-2" d="M36.34,32.15c.22,0,.49.34.71.34s.49-.34.7-.34h.06c.22.07.23.57.42.71s.67,0,.81.18-.15.6-.08.82.54.38.54.62-.47.41-.54.63.21.63.08.82-.62,0-.81.18-.2.64-.42.71h-.06c-.21,0-.48-.34-.7-.34s-.49.34-.71.34h-.05c-.23-.07-.23-.57-.42-.71s-.67,0-.81-.18.15-.6.08-.82-.55-.38-.55-.63.48-.4.55-.62-.21-.63-.08-.82.62,0,.81-.18.19-.64.42-.71h.05m0-1.34h-.21l-.25.08a1.55,1.55,0,0,0-.9.76A1.54,1.54,0,0,0,33.7,33.4a1.59,1.59,0,0,0-.44,1.09,1.62,1.62,0,0,0,.44,1.1A1.53,1.53,0,0,0,34,36.72a1.56,1.56,0,0,0,1,.62,1.55,1.55,0,0,0,.9.76l.2.07h.26a1.65,1.65,0,0,0,.71-.17,1.64,1.64,0,0,0,.7.17H38l.26-.08a1.55,1.55,0,0,0,.9-.76,1.56,1.56,0,0,0,1-.62,1.53,1.53,0,0,0,.28-1.13,1.62,1.62,0,0,0,.44-1.1,1.59,1.59,0,0,0-.44-1.09,1.54,1.54,0,0,0-1.28-1.75,1.55,1.55,0,0,0-.9-.76l-.2-.07h-.27a1.64,1.64,0,0,0-.7.17,1.65,1.65,0,0,0-.71-.17Z"/><circle class="cls-2" cx="37.05" cy="34.49" r="0.9"/></g></g></svg>