<svg xmlns="http://www.w3.org/2000/svg" width="179.56" height="29.98" viewBox="0 0 179.56 29.98"><defs><style>.cls-1{fill:#fff;}</style></defs><g id="圖層_2" data-name="圖層 2"><g id="圖層_1-2" data-name="圖層 1"><path class="cls-1" d="M86.38,14.05l-.31-1.21H82.58C85.91,16.3,89.88,18,94,19.52c-1.63,2.09-2.3,2.26-4.37,1.2A23.76,23.76,0,0,1,81,13.52c-.79-1.11-1.51-1-2.32,0-1.09,1.41-2.26,2.76-3.42,4.18,1.77.14,1.31,1.48,1.37,2.64.33,6.29-4.54,8.88-8.87,9.6-.13,0-.28-.09-.76-.26.65-.45,1.1-.83,1.6-1.11,4-2.19,5.6-5.16,5.13-9.9-2.69,1.58-5.39,3-8.48,3.26L65,21.58A60.41,60.41,0,0,0,70.85,18a32.52,32.52,0,0,0,4.88-4.93c-1.41-.25-2.7-.89-3.66.7-.28.46-1.27.5-2.09.78V2.47a5.2,5.2,0,0,1,2.24,0c5.35-.1,9.76,0,14.23,0,1.14,0,.29-.92,1.43-.26.38.22,1-.14,1,.26,0,2.89.09,6.37,0,9.26C88.88,13.65,88.49,14,86.38,14.05ZM78,8.28H72.7v2.54H78Zm8.14,2.53V8.3h-5.3v2.51Zm0-4.47V3.91H80.86V6.34ZM72.67,6.28H78V3.91H72.67Z"/><path class="cls-1" d="M49.47,25.52a16.58,16.58,0,0,1-1.82.95c-2.8,1-5.61,2.06-8.44,3-2.44.83-2.64.73-4.19-1.68a25.53,25.53,0,0,0,3.08-.57c.4-.12,1-.65,1-1,.06-5.23,0-10.47,0-15.8L32.3,13,32,12.41c.48-.32.92-.7,1.42-1a31.47,31.47,0,0,0,11.27-9.2c.5-.69.93-1.42,1.46-2.24.9.7,1.94,1,2.37,2.38.32,1,1.6,1.92,2.66,2.5C54,6.47,57,7.88,60,9.34c.51.25,1.07.43,1.65.66C60,11.9,59,12.1,57,11.18a26.58,26.58,0,0,1-9.62-7.57L45.26,5.88C46.86,7.09,49.81,7,49,10.4c.78-.11,1.45-.22,2.12-.29a8.3,8.3,0,0,1,2-.13c1.24.18,1.58.81,1.38,2.2a51,51,0,0,0-.14,6.43c0,1.95-.26,2.18-2.17,1.93a6.36,6.36,0,0,0-1.86-.68c-2.8-.08-5.59,0-8.51,0v6.75L49.29,25ZM41.91,14.09h9.75c.32-2,.32-2-1.48-2H43.44C41.62,12.13,41.62,12.13,41.91,14.09ZM51.62,16c-2.94,0-5.83,0-8.72,0-.82,0-1.17.26-1.17,1.11s.49.94,1.16.94c2.45,0,4.9-.08,7.35,0C51.73,18.08,52.14,17.54,51.62,16ZM44.86,6.32l-4.43,3.2,0,.52,6.64.42Z"/><path class="cls-1" d="M9,26.75h4.58V.75c2.73-.06,2.91.09,2.91,2.44q0,12,0,24c0,.63.05,1.45-.31,1.85s-1.46,1.09-1.91.89c-1.83-.79-3.54-1.87-5.3-2.84Z"/><path class="cls-1" d="M52.67,24.13c1.48.82,2.86,1.51,4.16,2.33a7.1,7.1,0,0,1,1.86,1.68,1.54,1.54,0,0,1,.1,1.45c-.23.32-.93.37-1.43.38a1.88,1.88,0,0,1-.94-.42l-11.76-7.7c-.18-.13-.3-.35-.31-.87.8.24,1.61.45,2.41.71.56.18,1.12.45,1.66.65A26.84,26.84,0,0,1,52.67,24.13Z"/><path class="cls-1" d="M7.15,8.44c2.76,1.24,2.95,1.44,1.23,4-2.1,3.09-4.48,6-6.78,8.91a2.53,2.53,0,0,1-1.6.83Z"/><path class="cls-1" d="M20.27,9.3c.29.11.67.13.86.33,2.39,2.46,4.82,4.9,7.07,7.49A4.59,4.59,0,0,1,29,19.88c0,1.17-1,1.56-2,.83a2.18,2.18,0,0,1-.53-.52Q23.25,14.93,20,9.64Z"/><path class="cls-1" d="M82.31,29.88v-12c2.47-.15,2.68,0,2.68,2.29,0,2.54,0,5.07,0,7.61C85,29.65,84.34,30.15,82.31,29.88Z"/><path class="cls-1" d="M141.73,26.21,144.41,18h.31l3,8.24c.06,0,.13,0,.14-.05L150,20c.22-.68,0-1-.72-1.14-.18,0-.32-.22-.48-.34a2.26,2.26,0,0,1,.55-.22c1,0,2.06,0,3.26,0-.19.27-.26.49-.36.5-.74.08-.93.64-1.13,1.21q-1.54,4.46-3.1,8.91c-.1.3-.25.59-.38.89h-.23l-3.06-8.31-2.89,8.31h-.25c-.09-.22-.2-.45-.28-.68-1-3-2-6-3-8.95-.21-.6-.33-1.26-1.13-1.4-.08,0-.12-.22-.22-.42h4l.09.18a3.26,3.26,0,0,0-.63.37c-.21.18-.56.48-.51.63.66,2.25,1.37,4.48,2.07,6.72Z"/><path class="cls-1" d="M109.92,2.52v5.3c.29-.25.51-.46.75-.64a2.51,2.51,0,0,1,2.71-.32,2.12,2.12,0,0,1,1.16,2.08c0,1.18,0,2.36,0,3.54,0,.55,0,1.11.75,1.22-.31.48-1.36.59-3.26.36.16-.18.24-.39.37-.42.53-.12.63-.47.63-.93,0-1.16,0-2.32,0-3.47,0-.64-.12-1.31-.92-1.52a2.33,2.33,0,0,0-2.12.77,1,1,0,0,0-.09.5c0,1.18,0,2.36,0,3.54,0,.56.08,1,.75,1.15-.25.51-1.25.62-3.08.39,0-.09,0-.25,0-.27.86-.35.77-1.11.77-1.8,0-2.49,0-5,0-7.47,0-.57-.14-1-.88-.91V3.4Z"/><path class="cls-1" d="M177,22.25a24.83,24.83,0,0,0,0-2.58c0-.29-.45-.53-.76-.86l2.29-.81v3.27c0,2.17,0,4.33,0,6.5,0,.67,0,1.39,1,1.29a1.44,1.44,0,0,1-2.57-.3,2.67,2.67,0,0,1-2.43.92c-1.61-.25-2.41-1.21-2.66-3.15a3.9,3.9,0,0,1,3-4.39A9.94,9.94,0,0,1,177,22.25Zm0,3.56c0-.58,0-1.18,0-1.76a1.07,1.07,0,0,0-.67-1.11,1.75,1.75,0,0,0-2.56.89,5.14,5.14,0,0,0-.12,3.33,2,2,0,0,0,1.4,1.48A1.41,1.41,0,0,0,177,27.21Z"/><path class="cls-1" d="M103.8,20.9c-.15-.21-.3-.41-.44-.62A3.13,3.13,0,0,0,100.28,19a1.6,1.6,0,0,0-.84,2.66,5.85,5.85,0,0,0,1.43,1c.78.47,1.62.83,2.39,1.32a3,3,0,0,1-1.32,5.64,7.72,7.72,0,0,1-4.06-.49c-.4-.17-.58-.38-.46-.85a8.4,8.4,0,0,1,.46-1.69c.07.19.16.37.21.56.31,1.16,1.33,1.77,2.93,1.72a1.93,1.93,0,0,0,2-1.68,1.78,1.78,0,0,0-.84-1.9c-.66-.43-1.37-.77-2-1.17a15.09,15.09,0,0,1-1.5-.93,2.72,2.72,0,0,1-1.08-3,3,3,0,0,1,2.55-2,13.27,13.27,0,0,1,2,.1c.58.06,1.16.15,1.83.24V20.8Z"/><path class="cls-1" d="M128.87,18.84l2.37-.85v7.68l2.81-2.77-1-.31c.18-.43,1.56-.57,3-.31l-3.55,3,3.86,4.2a2.74,2.74,0,0,1-3-.86l-2-2.47a2.69,2.69,0,0,0,.58,3.05c-.27.41-1.69.54-3.1.27,0-.11.06-.28.13-.3.74-.24.73-.86.73-1.44,0-2.59,0-5.17,0-7.76,0-.62-.22-1-.94-.94Z"/><path class="cls-1" d="M101.19,3.58a6.58,6.58,0,0,0-2.45.2c-.59.32-.89,1.2-1.36,1.88V2.82h9.54l-.24,2.81c-.53-.72-.85-1.58-1.46-1.88a6,6,0,0,0-2.39-.07v1c0,2.41,0,4.82,0,7.24,0,1.32.14,1.44,1.66,1.79-.35.22-.55.44-.76.45-1.28,0-2.56,0-3.84,0l-.11-.2a2.23,2.23,0,0,1,.62-.41c.49-.15.78-.4.78-.93Z"/><path class="cls-1" d="M105.92,22.86l2.34-1v1.36l.32.26a2.28,2.28,0,0,1,.24-.6,2.18,2.18,0,0,1,2.6-.66,2.24,2.24,0,0,1,1.46,2.2c.06,1.13,0,2.26,0,3.39,0,.58,0,1.16.76,1.43-1,.57-2.05.17-3.15.38.09-.23.11-.44.19-.46.74-.2.72-.79.7-1.36,0-1.16,0-2.32-.17-3.46a1.12,1.12,0,0,0-1.38-1.16,1.55,1.55,0,0,0-1.58,1.47c0,1.11,0,2.22,0,3.33,0,.56.06,1,.76,1.24-1,.61-2.06.18-3.17.4.1-.26.11-.44.17-.46.77-.22.72-.85.73-1.44,0-1.23,0-2.46,0-3.69,0-.62-.13-1-.89-1Z"/><path class="cls-1" d="M121,29.24a1.43,1.43,0,0,1-2.42-.44,2.69,2.69,0,0,1-2.69.81,1.62,1.62,0,0,1-1.27-2.12,3.37,3.37,0,0,1,3.07-2.16c.67,0,1.06-.11,1-.94-.09-1.1-.38-1.59-1.19-1.63s-1.12.33-1.26,1.15c0,.25-.16.61-.35.69a.83.83,0,0,1-.79-.12,1.1,1.1,0,0,1-.15-.93,3.07,3.07,0,0,1,1-1.07,3.42,3.42,0,0,1,3.07-.09,1.66,1.66,0,0,1,1.12,1.66c0,1.33,0,2.66,0,4C120.14,29,120.14,29,121,29.24Zm-2.38-3.4c-1.4.08-2.13.53-2.41,1.41a1.11,1.11,0,0,0,.59,1.41c.59.22,1.73-.13,1.8-.63A19.91,19.91,0,0,0,118.62,25.84Z"/><path class="cls-1" d="M117.85,10.31a2.86,2.86,0,0,0,1.48,2.75c1.09.53,2,.06,3-.53a2.29,2.29,0,0,1-1.53,1.58,3.35,3.35,0,0,1-4.51-3,4.3,4.3,0,0,1,1.3-3.61A3,3,0,0,1,121,6.87a3,3,0,0,1,1.6,2.78c0,.45-.25.51-.61.52-1.11,0-2.22.06-3.33.1Zm3.1-.89c0-1.39-.59-2.2-1.46-2.17a2,2,0,0,0-1.58,2.41Z"/><path class="cls-1" d="M167.51,18.83l2.41-.86v.75q0,4.65,0,9.3c0,.56.08,1.06.82,1.05-.24.58-1.08.68-3.23.46,0-.12,0-.31.09-.32.86-.26.78-1,.79-1.62,0-2.51,0-5,0-7.53,0-.53,0-1.12-.92-1Z"/><path class="cls-1" d="M127.86,27.8a2.46,2.46,0,0,1-2.54,1.92,3.13,3.13,0,0,1-3-1.85,4.27,4.27,0,0,1,.54-4.65,3.23,3.23,0,0,1,3.55-1,2.07,2.07,0,0,1,1.57,1.33c.15.48.14,1-.48,1.11s-.89-.09-.93-.72a1.07,1.07,0,0,0-.91-1.17,1.58,1.58,0,0,0-1.67.68,4.31,4.31,0,0,0,.24,4.47,2.16,2.16,0,0,0,2.87.46C127.31,28.21,127.54,28,127.86,27.8Z"/><path class="cls-1" d="M164.45,29.28c-1,.47-2,.22-3.12.3,0-.17,0-.32.07-.34.83-.33.67-1,.68-1.68V24c0-.82,0-.82-.9-1.13l2.37-1v1.59l.61-.76a1.48,1.48,0,0,1,1.77-.54c.34.14.77.49.82.8s-.31.71-.5,1.1c-1.26-.9-1.72-.93-2.38-.21a1.06,1.06,0,0,0-.28.64c0,1.15,0,2.31,0,3.46A1.2,1.2,0,0,0,164.45,29.28Z"/><path class="cls-1" d="M154.88,23.79c.22,0,.49.34.71.34s.49-.34.7-.34h.06c.22.07.23.57.42.71s.67,0,.81.18-.15.6-.08.83.54.38.54.62-.47.4-.54.62.21.63.08.82-.62,0-.81.18-.2.64-.42.71h-.06c-.21,0-.48-.33-.7-.33s-.49.33-.71.33h0c-.23-.07-.23-.57-.42-.71s-.67,0-.81-.18.15-.6.08-.82-.55-.38-.55-.62.48-.41.55-.63-.21-.63-.08-.82.62,0,.81-.18.19-.64.42-.71h0m0-1.34h-.21l-.25.08a1.55,1.55,0,0,0-.9.76,1.56,1.56,0,0,0-1,.62,1.53,1.53,0,0,0-.28,1.13,1.62,1.62,0,0,0-.44,1.1,1.59,1.59,0,0,0,.44,1.09A1.54,1.54,0,0,0,153.52,29a1.55,1.55,0,0,0,.9.76l.2.07h.26a1.55,1.55,0,0,1,1.41,0h.22l.25-.08a1.55,1.55,0,0,0,.9-.76,1.54,1.54,0,0,0,1.28-1.75,1.59,1.59,0,0,0,.44-1.09,1.62,1.62,0,0,0-.44-1.1,1.53,1.53,0,0,0-.28-1.13,1.56,1.56,0,0,0-1-.62,1.55,1.55,0,0,0-.9-.76l-.2-.07h-.27a1.55,1.55,0,0,1-1.41,0Z"/><circle class="cls-1" cx="155.59" cy="26.14" r="0.9"/><polygon class="cls-1" points="171 12.41 167.42 7.1 163.82 12.41 160.24 7.1 156.65 12.4 153.05 7.1 149.46 12.41 145.87 7.1 142.28 12.4 138.69 7.1 135.1 12.4 131.5 7.1 128.38 11.7 127.42 11.04 131.5 5.03 135.1 10.34 138.69 5.03 142.28 10.34 145.87 5.03 149.46 10.34 153.05 5.03 156.65 10.34 160.24 5.03 163.82 10.34 167.42 5.03 171 10.34 174.59 5.03 178.66 11.05 177.7 11.7 174.59 7.1 171 12.41"/><polyline class="cls-1" points="88.89 2.1 87.55 0.31 86.19 2.1 84.84 0.31 83.49 2.1 82.15 0.31 80.8 2.1 79.45 0.31 78.1 2.1 76.75 0.31 75.39 2.1 74.04 0.31 72.69 2.1 71.33 0.31 69.98 2.1"/><path class="cls-1" d="M55.48,20.07c.21,0,.48.33.7.33s.5-.33.71-.33h0c.23.08.24.58.42.71s.67,0,.81.19-.15.59-.07.82.54.38.54.62-.47.4-.55.62.22.64.08.82-.62,0-.81.19-.19.63-.42.71h0c-.21,0-.49-.33-.71-.33s-.49.33-.7.33h-.06c-.22-.08-.23-.58-.42-.71s-.67,0-.8-.19.15-.59.07-.82-.54-.38-.54-.62.47-.4.54-.62-.21-.64-.07-.82.61,0,.8-.19.2-.63.42-.71h.06m0-1.34h-.21L55,18.8a1.59,1.59,0,0,0-.9.76,1.58,1.58,0,0,0-1,.62,1.56,1.56,0,0,0-.28,1.14,1.55,1.55,0,0,0,0,2.18,1.56,1.56,0,0,0,.28,1.14,1.58,1.58,0,0,0,1,.62A1.63,1.63,0,0,0,55,26l.2.06h.27a1.61,1.61,0,0,0,.7-.16,1.65,1.65,0,0,0,.71.16h.21l.26-.07a1.56,1.56,0,0,0,.89-.76,1.58,1.58,0,0,0,1-.62,1.56,1.56,0,0,0,.28-1.14,1.55,1.55,0,0,0,0-2.18,1.56,1.56,0,0,0-.28-1.14,1.58,1.58,0,0,0-1-.62,1.56,1.56,0,0,0-.89-.76l-.21-.06h-.26a1.69,1.69,0,0,0-.71.16,1.61,1.61,0,0,0-.7-.16Z"/><circle class="cls-1" cx="56.18" cy="22.41" r="0.9"/><rect class="cls-1" x="69.98" y="2.1" width="18.92" height="0.43"/></g></g></svg>