<svg xmlns="http://www.w3.org/2000/svg" width="20.54" height="20.54" viewBox="0 0 20.54 20.54"><defs><style>.cls-1{fill:#fff;}</style></defs><g id="圖層_2" data-name="圖層 2"><g id="圖層_1-2" data-name="圖層 1"><path class="cls-1" d="M9.13,4.57H16V6.85H9.13Zm0,4.56H16v2.28H9.13Zm0,4.57H16V16H9.13ZM4.57,4.57H6.85V6.85H4.57Zm0,4.56H6.85v2.28H4.57Zm0,4.57H6.85V16H4.57ZM19.52,0H1A1,1,0,0,0,0,1V19.52a1.11,1.11,0,0,0,1,1H19.52a1.21,1.21,0,0,0,1-1V1A1.11,1.11,0,0,0,19.52,0ZM18.26,18.26h-16v-16h16Z"/></g></g></svg>