<svg xmlns="http://www.w3.org/2000/svg" width="22.83" height="22.83" viewBox="0 0 22.83 22.83"><defs><style>.cls-1{fill:#fff;}</style></defs><g id="圖層_2" data-name="圖層 2"><g id="圖層_1-2" data-name="圖層 1"><path class="cls-1" d="M20.54,0H2.28A2.37,2.37,0,0,0,0,2.28V5.72A2.31,2.31,0,0,0,1.14,7.65V20.54a2.46,2.46,0,0,0,2.28,2.29h16a2.45,2.45,0,0,0,2.28-2.29V7.65a2.3,2.3,0,0,0,1.15-1.93V2.28A2.38,2.38,0,0,0,20.54,0ZM19.4,20.54h-16V8h16ZM20.54,5.71H2.28V2.28H20.54Z"/><rect class="cls-1" x="7.99" y="11.41" width="6.85" height="2.28"/></g></g></svg>