<svg xmlns="http://www.w3.org/2000/svg" width="23.6" height="23.6" viewBox="0 0 23.6 23.6"><defs><style>.cls-1{fill:#fff;}</style></defs><g id="圖層_2" data-name="圖層 2"><g id="圖層_1-2" data-name="圖層 1"><path class="cls-1" d="M11.8,0A11.8,11.8,0,1,0,23.6,11.8,11.81,11.81,0,0,0,11.8,0ZM6,19.21c.51-1.06,3.6-2.1,5.82-2.1s5.32,1,5.82,2.1A9.36,9.36,0,0,1,6,19.21ZM19.31,17.5c-1.69-2.05-5.79-2.75-7.51-2.75S6,15.45,4.3,17.5a9.34,9.34,0,0,1-1.94-5.7,9.44,9.44,0,1,1,17,5.7ZM11.8,4.72a4.13,4.13,0,1,0,4.13,4.13A4.12,4.12,0,0,0,11.8,4.72Zm0,5.9a1.77,1.77,0,1,1,1.77-1.77A1.77,1.77,0,0,1,11.8,10.62Z"/></g></g></svg>