<svg xmlns="http://www.w3.org/2000/svg" width="162.25" height="162.25" viewBox="0 0 162.25 162.25"><defs><style>.cls-1{fill:#f2eae3;}.cls-2{fill:#16264f;}</style></defs><g id="圖層_2" data-name="圖層 2"><g id="圖層_1-2" data-name="圖層 1"><circle class="cls-1" cx="81.12" cy="81.12" r="81.12"/><rect class="cls-2" x="64.39" y="72.11" width="20.06" height="4.51" rx="2.26" transform="translate(62.53 -30.17) rotate(38.53)"/><rect class="cls-2" x="89.91" y="45.01" width="4.01" height="40.54" rx="2.01" transform="translate(60.67 -43.05) rotate(38.53)"/><path class="cls-2" d="M45.07,86.77v-6a2.6,2.6,0,0,1,2.6-2.59h54.8a.81.81,0,0,0,.76-.53l1.17-3.16,0-.1a3,3,0,0,1,2.51-2.39h15.67a1.81,1.81,0,0,1,1.81,1.8V87.67A4.23,4.23,0,0,1,126,91V73.85a3.42,3.42,0,0,0-3.42-3.41H106.94A4.54,4.54,0,0,0,102.87,74l-1,2.58H47.67a4.22,4.22,0,0,0-4.21,4.21v6l.37,0Z"/><path class="cls-2" d="M120.26,80H51.08a.8.8,0,0,0-.8.81v2.61h1.61V81.64h67.57v5.13h1.61V80.84A.81.81,0,0,0,120.26,80Z"/><path class="cls-2" d="M116.49,83.45H47.31a.8.8,0,0,0-.81.8v2.52h1.61V85.06h67.57v1.71h1.62V84.25A.81.81,0,0,0,116.49,83.45Z"/><path class="cls-2" d="M124.42,87.67a4.22,4.22,0,0,0-2.59-.9h-78l-.37,0A4.21,4.21,0,0,0,39.63,91v18c.51.89,1,1.77,1.61,2.63V91a2.6,2.6,0,0,1,2.59-2.59h78A2.6,2.6,0,0,1,124.42,91v21.1c.56-.84,1.09-1.7,1.61-2.57V91A4.23,4.23,0,0,0,124.42,87.67Z"/><path class="cls-2" d="M96.11,37.11a1.26,1.26,0,0,1-.27,0A48.1,48.1,0,0,0,90.77,36a1,1,0,0,1,.32-2,50.13,50.13,0,0,1,5.28,1.14,1,1,0,0,1,.71,1.23A1,1,0,0,1,96.11,37.11Z"/><path class="cls-2" d="M83,135.15a50.9,50.9,0,1,1,0-101.8,1,1,0,0,1,0,2,48.88,48.88,0,1,0,41.52,23.07A49.11,49.11,0,0,0,105.3,40.74a1,1,0,1,1,.92-1.79,50.87,50.87,0,0,1,27.67,45.3A50.89,50.89,0,0,1,83,135.15Z"/><path class="cls-2" d="M102.28,37.66A1.28,1.28,0,1,1,101,36.38,1.28,1.28,0,0,1,102.28,37.66Z"/></g></g></svg>