<svg xmlns="http://www.w3.org/2000/svg" width="162.25" height="162.25" viewBox="0 0 162.25 162.25"><defs><style>.cls-1{fill:#f2eae3;}.cls-2{fill:#16264f;}</style></defs><g id="圖層_2" data-name="圖層 2"><g id="圖層_1-2" data-name="圖層 1"><circle class="cls-1" cx="81.12" cy="81.12" r="81.12"/><path class="cls-2" d="M68.14,117c-.2-.92-.47-2-.82-3.23a67.83,67.83,0,0,0-6.95-16,.09.09,0,0,0,0-.06,25.4,25.4,0,1,1,42.36.91l0,0A65.52,65.52,0,0,0,95.43,117h1.64a64.25,64.25,0,0,1,7-17.45,27,27,0,1,0-45.07-1v0A64.88,64.88,0,0,1,66.49,117Z"/><path class="cls-2" d="M66.21,126.62H67V123h-.8a.8.8,0,0,1-.8-.8v5.19A.8.8,0,0,1,66.21,126.62Z"/><path class="cls-2" d="M98.05,127.94l.19-.07v-.45A.85.85,0,0,1,98.05,127.94Z"/><path class="cls-2" d="M97.44,123h-.8v3.59h.8a.8.8,0,0,1,.8.8v-5.19A.8.8,0,0,1,97.44,123Z"/><path class="cls-2" d="M65.41,127.87l.19.07a.79.79,0,0,1-.19-.52Z"/><path class="cls-2" d="M66.21,121.43H67v-2.84h7.24a.8.8,0,0,1-.8-.8V117H66.21a.8.8,0,0,0-.8.8v4.44A.8.8,0,0,1,66.21,121.43Z"/><path class="cls-2" d="M95.43,117H90.19v.8a.8.8,0,0,1-.8.8h7.25v2.84h.8a.8.8,0,0,1,.8.8v-4.44a.8.8,0,0,0-.8-.8h-2Z"/><path class="cls-2" d="M66.45,128.22l.56.18v-.18Z"/><path class="cls-2" d="M96.64,128.4l.56-.18h-.56Z"/><path class="cls-2" d="M88.59,117.79V117H75.05v.8a.79.79,0,0,1-.8.8H89.39A.8.8,0,0,1,88.59,117.79Z"/><path class="cls-2" d="M66.21,123H97.44a.8.8,0,1,0,0-1.6H66.21a.8.8,0,0,0,0,1.6Z"/><path class="cls-2" d="M97.44,126.62H66.21a.8.8,0,0,0-.61,1.32l.85.28H97.2l.85-.28a.85.85,0,0,0,.19-.52A.8.8,0,0,0,97.44,126.62Z"/><path class="cls-2" d="M94.85,34.32a.84.84,0,0,1-.27,0,47.34,47.34,0,0,0-5-1.08,1,1,0,1,1,.32-2,51.94,51.94,0,0,1,5.24,1.12,1,1,0,0,1-.26,2Z"/><path class="cls-2" d="M81.82,131.66a50.54,50.54,0,0,1,0-101.07,1,1,0,0,1,0,2A48.52,48.52,0,1,0,104,37.93a1,1,0,0,1-.43-1.35,1,1,0,0,1,1.35-.43,50.54,50.54,0,0,1-23.07,95.51Z"/><path class="cls-2" d="M101,34.87a1.28,1.28,0,1,1-1.27-1.27A1.27,1.27,0,0,1,101,34.87Z"/><path class="cls-2" d="M80.18,94.88V93.62A8.41,8.41,0,0,1,81,90a13,13,0,0,1,2.85-3.5l1.83-1.6a5.89,5.89,0,0,0,2.21-4.11,3.89,3.89,0,0,0-1.47-3.32,7.13,7.13,0,0,0-4.32-1.1q-3.51,0-5,1.86a7.91,7.91,0,0,0-1.33,3.13C75.48,82.41,74.89,83,74,83a1.8,1.8,0,0,1-1.34-.44,1.84,1.84,0,0,1-.42-1.32,7.2,7.2,0,0,1,1.22-3.81q2.44-4.19,8.73-4.19,4.45,0,6.89,2.1a7.22,7.22,0,0,1,2.36,5.45c0,2.1-1.2,4.25-3.62,6.43l-2.13,1.87a6,6,0,0,0-2.13,4.61v1.18c0,1.14-.55,1.71-1.64,1.71A1.5,1.5,0,0,1,80.18,94.88Zm-.11,8.72a2.6,2.6,0,0,1-.72-1.79,2.66,2.66,0,0,1,.76-1.83A2.61,2.61,0,0,1,82,99.26a2.25,2.25,0,0,1,1.76.76,2.52,2.52,0,0,1,.72,1.79,2.26,2.26,0,0,1-.76,1.83,2.45,2.45,0,0,1-1.79.76A2.36,2.36,0,0,1,80.07,103.6Z"/></g></g></svg>