<svg xmlns="http://www.w3.org/2000/svg" width="162.25" height="162.25" viewBox="0 0 162.25 162.25"><defs><style>.cls-1{fill:#f2eae3;}.cls-2{fill:#16264f;}</style></defs><g id="圖層_2" data-name="圖層 2"><g id="圖層_1-2" data-name="圖層 1"><circle class="cls-1" cx="81.12" cy="81.12" r="81.12"/><path class="cls-2" d="M58.77,70.94h45.95a.5.5,0,0,0,.5-.5.51.51,0,0,0-.5-.5H58.77a.51.51,0,0,0-.5.5A.5.5,0,0,0,58.77,70.94Z"/><path class="cls-2" d="M104.72,76.45a.51.51,0,0,0,.5-.5.5.5,0,0,0-.5-.5H58.77a.5.5,0,0,0-.5.5.51.51,0,0,0,.5.5Z"/><path class="cls-2" d="M58.77,82h45.95a.5.5,0,0,0,0-1H58.77a.5.5,0,1,0,0,1Z"/><path class="cls-2" d="M58.77,87.46h45.95a.51.51,0,0,0,.5-.5.5.5,0,0,0-.5-.5H58.77a.5.5,0,0,0-.5.5A.51.51,0,0,0,58.77,87.46Z"/><path class="cls-2" d="M58.77,93h45.95a.5.5,0,0,0,0-1H58.77a.5.5,0,1,0,0,1Z"/><path class="cls-2" d="M105.22,98a.51.51,0,0,0-.5-.5H58.77a.51.51,0,0,0-.5.5.5.5,0,0,0,.5.5h45.95A.5.5,0,0,0,105.22,98Z"/><path class="cls-2" d="M45.05,92.64a.82.82,0,0,1,.83,0l.34.24v-3.8l4.72-3.26V83.93l-6,4.12a.79.79,0,0,0-.34.66v4.64A.81.81,0,0,1,45.05,92.64Z"/><path class="cls-2" d="M112.54,85.91l4.72,3.24V93l.35-.24a.78.78,0,0,1,.82,0,.79.79,0,0,1,.43.71V88.73a.81.81,0,0,0-.34-.66l-6-4.11Z"/><path class="cls-2" d="M118.43,92.66a.78.78,0,0,0-.82,0l-.35.24-4.72,3.26v1.52a.81.81,0,0,1-.34.66l5.06-3.5V116c.55-.56,1.08-1.13,1.6-1.72V93.37A.79.79,0,0,0,118.43,92.66Z"/><path class="cls-2" d="M68.54,110.2h0L51.29,98.35a.79.79,0,0,1-.35-.66V96.17l-4.72-3.24-.34-.24a.82.82,0,0,0-.83,0,.81.81,0,0,0-.42.71v20.91c.51.59,1,1.16,1.59,1.72V94.87Z"/><polygon class="cls-2" points="69.86 111.11 77.55 116.39 69.86 111.11 69.86 111.11"/><path class="cls-2" d="M50.94,85.87V97.69a.79.79,0,0,0,.35.66L68.54,110.2l.45-.58a.8.8,0,0,1,1.12-.15.81.81,0,0,1,.15,1.13l-.4.51,7.69,5.28,0,0c1.75,1.06,2.94,1.64,4.23,1.64h0c1.26,0,2.43-.55,4.28-1.63l.05,0,7.53-5.2-.45-.59a.81.81,0,0,1,.15-1.13.8.8,0,0,1,1.12.15l.5.65,17.2-11.88h0a.81.81,0,0,0,.34-.66V61a.79.79,0,0,0-.8-.8h-60a.8.8,0,0,0-.8.8V85.87Zm34.32,29.19c-1.58.93-2.56,1.4-3.44,1.4s-1.69-.37-3.39-1.4L52.54,97.27V61.84h58.4V97.31Z"/><path class="cls-2" d="M69.86,111.11l.4-.51a.81.81,0,0,0-.15-1.13.8.8,0,0,0-1.12.15l-.45.58h0l-11.1,14.43c.47.27.94.52,1.42.77l11-14.29Z"/><path class="cls-2" d="M94.5,109.62a.8.8,0,0,0-1.12-.15.81.81,0,0,0-.15,1.13l.45.59,10.94,14.21c.48-.25,1-.5,1.43-.77L95,110.27Z"/><path class="cls-2" d="M94.77,34.66a1.26,1.26,0,0,1-.27,0,47.34,47.34,0,0,0-5-1.08,1,1,0,0,1,.32-2A49.37,49.37,0,0,1,95,32.69a1,1,0,0,1-.26,2Z"/><path class="cls-2" d="M81.74,132a50.54,50.54,0,0,1,0-101.07,1,1,0,0,1,0,2,48.46,48.46,0,1,0,22.15,5.33,1,1,0,0,1-.43-1.34,1,1,0,0,1,1.35-.44,50.54,50.54,0,0,1,27.47,45A50.55,50.55,0,0,1,81.74,132Z"/><path class="cls-2" d="M100.9,35.21a1.27,1.27,0,1,1-1.27-1.28A1.27,1.27,0,0,1,100.9,35.21Z"/></g></g></svg>