<svg xmlns="http://www.w3.org/2000/svg" width="162.25" height="162.25" viewBox="0 0 162.25 162.25"><defs><style>.cls-1{fill:#f2eae3;}.cls-2{fill:#16264f;}</style></defs><g id="圖層_2" data-name="圖層 2"><g id="圖層_1-2" data-name="圖層 1"><circle class="cls-1" cx="81.12" cy="81.12" r="81.12"/><polygon class="cls-2" points="83.55 72.11 93.7 98.48 96.73 89.14 106.02 98.43 109.88 94.58 100.58 85.29 109.93 82.25 83.55 72.11"/><path class="cls-2" d="M47.5,55.46v50.43a.8.8,0,0,1,.8-.8h.8V55.46a1.63,1.63,0,0,1,1.63-1.64h71.73c-.36-.54-.73-1.07-1.11-1.6H50.73A3.24,3.24,0,0,0,47.5,55.46Z"/><path class="cls-2" d="M48.3,105.09a.8.8,0,0,0-.8.8v4.33a3.23,3.23,0,0,0,3.23,3.23h32c0-.26,0-.52,0-.8a.8.8,0,0,1,.8-.8H50.73a1.63,1.63,0,0,1-1.63-1.63v-3.53h74.46c.32-.53.62-1.06.92-1.6H48.3Z"/><path class="cls-2" d="M103.63,112.65c0,.28,0,.54,0,.8h15c.45-.52.9-1,1.32-1.6H102.83A.8.8,0,0,1,103.63,112.65Z"/><path class="cls-2" d="M52.36,57.14v44.23a.8.8,0,0,0,.8.8H126c.24-.53.48-1.06.71-1.6H54V57.94h70.95c-.29-.54-.58-1.07-.89-1.6H53.16A.8.8,0,0,0,52.36,57.14Z"/><path class="cls-2" d="M102.83,111.85H83.5a.8.8,0,0,0-.8.8c0,.28,0,.54,0,.8-.16,5.22-1.93,6.82-2.38,7.15h2.17c.84-1.24,1.7-3.41,1.81-7.15H102c.11,3.74,1,5.91,1.82,7.15H106c-.46-.32-2.22-1.9-2.38-7.15,0-.26,0-.52,0-.8A.8.8,0,0,0,102.83,111.85Z"/><path class="cls-2" d="M106,120.6H75.63a3.06,3.06,0,0,0-3.12,2.71v1.11a.79.79,0,0,0,.8.8H103.7c1-.5,1.94-1,2.88-1.6H74.11v-.31c0-.52.81-1.11,1.52-1.11h33.19c.75-.51,1.48-1,2.2-1.58l-.32,0Z"/><path class="cls-2" d="M87.52,66.69a.8.8,0,0,0,.8-.8v-3.6a.8.8,0,0,0-1.6,0v3.6A.8.8,0,0,0,87.52,66.69Z"/><path class="cls-2" d="M82,67.57a.81.81,0,0,0,1.09.3.81.81,0,0,0,.3-1.1l-1.8-3.11a.8.8,0,1,0-1.39.8Z"/><path class="cls-2" d="M75.69,69.58l3.12,1.8a.83.83,0,0,0,.4.11.82.82,0,0,0,.69-.4.81.81,0,0,0-.29-1.1l-3.12-1.8a.8.8,0,0,0-.8,1.39Z"/><path class="cls-2" d="M74.32,76.29h3.6a.8.8,0,0,0,0-1.6h-3.6a.8.8,0,0,0,0,1.6Z"/><path class="cls-2" d="M94.15,34.32a.84.84,0,0,1-.27,0,47.34,47.34,0,0,0-5-1.08,1,1,0,1,1,.32-2,51.94,51.94,0,0,1,5.24,1.12,1,1,0,0,1-.26,2Z"/><path class="cls-2" d="M81.12,131.66a50.54,50.54,0,0,1,0-101.07,1,1,0,0,1,0,2,48.52,48.52,0,1,0,22.15,5.34,1,1,0,0,1-.43-1.35,1,1,0,0,1,1.35-.43,50.54,50.54,0,0,1-23.07,95.51Z"/><circle class="cls-2" cx="99.01" cy="34.87" r="1.27"/></g></g></svg>