<svg xmlns="http://www.w3.org/2000/svg" width="196.31mm" height="74.25mm" viewBox="0 0 556.47 210.46"><defs><style>.cls-1{fill:#13284e;}</style></defs><g id="圖層_2" data-name="圖層 2"><g id="圖層_1-2" data-name="圖層 1"><path class="cls-1" d="M236.77,33.21c.85-3.06,1.78-6.11,2.52-9.19.38-1.6-.6-2.22-2-1.72-3.05,1.06-6.13,2.1-9.07,3.44-3.84,1.75-7.55,3.78-11.53,5.79,1,4.06,2,8.14,2.93,12.24a16.32,16.32,0,0,1,.56,4.43,2.9,2.9,0,0,1-1.49,2.18,2.6,2.6,0,0,1-2.25-1.21c-1-2.36-1.5-4.9-2.38-7.31-1.57-4.27-3.11-8.57-5-12.71-.75-1.66-.21-2.43.87-3.36s2.12-.47,3,.46l2.41,2.56c6.4-5.81,14-9.08,22-11.5,6.38-1.94,8.22-.23,6.89,6.4-1,5.11-2.71,10.09-4.07,15.13-.28,1-.85,2.24-.55,3.11.91,2.64-.45,3.91-2.27,5.4a25.54,25.54,0,0,0-7.68,9.76c1.92.46,3.56.94,5.24,1.26,5.36,1,10.75,1.92,16.09,3a2.92,2.92,0,0,1,1.88,2,3.23,3.23,0,0,1-3,3.63,13.63,13.63,0,0,1-4.18-.52c-2.83-.66-5.64-1.42-8.44-2.19-1.9-.53-2.77-.09-2.69,2.08.23,5.82.36,11.64.44,17.46,0,1.85.31,4.36-2.41,4.35s-2-2.5-2.13-4.22c-.37-6-.62-12.1-1.12-18.14-.09-1.15-1.09-2.24-1.68-3.35A16.57,16.57,0,0,0,224,64.42a7.89,7.89,0,0,0-2.8,7.12q.71,5.68,1.36,11.36a16.11,16.11,0,0,1,.15,3.46c-.12,1.08-.09,2.33-1.85,2.44a2.1,2.1,0,0,1-2.54-2c-.57-3.43-1.11-6.87-1.67-10.3a9,9,0,0,0-.23-.93c-.22,0-.45-.11-.5,0-3.68,4.17-7.32,8.38-11,12.53a5.34,5.34,0,0,1-2.3,1.68c-.72.2-2.15-.14-2.33-.61a3.1,3.1,0,0,1,.49-2.58c8.4-10.72,16.87-21.39,25.3-32.09A15.9,15.9,0,0,0,227.32,52c-1.67-.27-3-.38-4.21-.71-.71-.18-1.86-.68-1.88-1.08a6.61,6.61,0,0,1,.8-2.88c.17-.37.82-.54,1.27-.74,3.54-1.55,3.77-2.25,1.9-6.22a26.41,26.41,0,0,1-3.74,1c-.61.09-1.75-.3-1.86-.69a3.15,3.15,0,0,1,.55-2.17,3.91,3.91,0,0,1,1.59-1.17c3.08-1.56,5-3.72,5.18-7.48.12-2.69,2-3.18,4.2-1.57a15.83,15.83,0,0,0,4,2.24c1.46.52,2.08,1.24,1.7,2.74-1.62,1.13-3.25,2.24-4.86,3.39-.51.37-1.37.85-1.36,1.27,0,2.42.25,4.83.41,7.24l1.06.18C235.82,42.25,235.82,37.52,236.77,33.21Z"/><path class="cls-1" d="M117.6,52.48c.33,7.23.69,13.93.93,20.63.09,2.23.86,3.41,3.28,3.25,4.81-.31,9.63-.58,14.45-.76,5.47-.2,11-.34,16.42-.37a3.47,3.47,0,0,1,2.15,1.19,7.42,7.42,0,0,1-1.59,3.24c-.51.53-1.71.49-2.61.54q-13.69.75-27.39,1.46l-1.5,0c-6.91,0-7.88-1-8.14-7.73-.22-5.72-.73-11.43-1-17.14-.1-2-1-2.51-2.71-1.84-3.48,1.35-6.94,2.74-10.4,4.13-.54.21-1.09.68-1.59.62-.83-.09-2-.3-2.32-.86a2.44,2.44,0,0,1,.52-2.34,27.46,27.46,0,0,1,5.31-3.18,65.83,65.83,0,0,1,7.73-2.77c1.62-.48,2.11-1.31,1.81-2.91a19,19,0,0,1-.47-4.68,2.89,2.89,0,0,1,1.66-2c.53-.17,1.53.62,2.11,1.19A4.86,4.86,0,0,1,115,44c1.34,4,1.35,4.07,5.53,2.81,2.78-.83,5.51-1.85,8.31-2.63A4,4,0,0,0,132,40c0-2-.16-4-.27-6-.07-1.53.1-3,2-3.13s2.17,1.32,2.26,2.84c.15,2.46.36,4.93.55,7.35,4.09.28,5-.37,5.35-4.15.46-5.46.72-10.94,1-16.41.09-1.37.08-2.9,1.94-2.89s2.06,1.53,2.06,2.87c0,4.57-.11,9.14-.17,13.7,0,1.08,0,2.15,0,3.46a57.88,57.88,0,0,1,5.77-1.38,3.19,3.19,0,0,1,2.5.87c.3.36-.2,1.71-.69,2.34a7.7,7.7,0,0,1-6.18,3.24,2.68,2.68,0,0,0-2.93,2.44c-.48,2.52-1.11,5-1.55,7.54-.29,1.6-1.09,3.41,1.28,4.41.23.1.08,2.48-.52,2.9a105.25,105.25,0,0,1-10.51,6.61c-.94.5-2.63.07-3.8-.39-1.78-.7-1.85-2.13-.56-3.54.69-.75,1.58-1.69,1.63-2.58.18-3.79.07-7.59.07-12Zm22.86-6.35-1.1-.72c-.93.71-2.6,1.36-2.66,2.14-.28,3.63-.12,7.3-.12,11l.87.16Q139,52.4,140.46,46.13Z"/><path class="cls-1" d="M416.54,45.24A31.56,31.56,0,0,1,412,46.37a2.43,2.43,0,0,1-2-.93,2.37,2.37,0,0,1,.47-2.18,16.55,16.55,0,0,1,3.8-2.79,4.36,4.36,0,0,0,2.54-4.17,18.39,18.39,0,0,1,.5-4.94c.26-.85,1.52-1.38,2.34-2.06a8.73,8.73,0,0,1,1.57,2.34,17.36,17.36,0,0,1,.06,3.8,11,11,0,0,1,3-.52c1,.1,2.77.48,2.87,1a7.43,7.43,0,0,1-.76,3.6c-.12.36-.77.57-1.22.78-3.95,1.78-5,4.43-3.22,8.45A1.89,1.89,0,0,0,424.4,50c1.14-.22,2.46.5,3.71.81-.7,1.39-1.07,3.2-2.18,4.08-1.27,1-3.21,1.17-4.82,1.81-1.2.47-2.33,1.12-3.33,1.61l3.06,7.5,7.36-3.21c1.52-.66,3-1.38,4.55-2s3.2-.61,3.85,1.07c.72,1.85-.52,3.22-2.15,4-3.84,1.75-7.74,3.38-11.6,5.08-1,.42-1.86.94-2.78,1.41-.23.35-.46.71-.68,1.07a9.12,9.12,0,0,1,2.09.91c4.27,3.29,8.45,6.71,12.75,10,3.17,2.39,6.43,4.68,9.72,6.89,2.23,1.51,2.67,2.5,1.53,4.4s-2.74,2.34-4.82.8q-9.6-7.11-19.09-14.38c-3.05-2.34-3.37-2.14-4.91,1.51s-3.61,7.42-5.58,11a6.33,6.33,0,0,1-2.46,2.41c-.74.4-1.83.13-2.76.16,0-.91-.24-2,.14-2.69,1.91-3.74,4.14-7.33,5.95-11.11,1.17-2.46,2.32-5.12,1.22-8.13-4.12,1.71-8,3.33-11.92,4.92-.92.37-1.89.61-2.82,1-1.45.55-2.84.77-3.5-1.05s.7-2.55,2-3.13c5.17-2.25,10.37-4.41,15.52-6.71,3.07-1.37,3.27-2.26,2.19-5.48a16.14,16.14,0,0,1-.64-5.25c-1.9-3.22-1.85-3.74,1.52-5.49a2.57,2.57,0,0,0,1.65-2.94C417,49.07,416.78,47.29,416.54,45.24Z"/><path class="cls-1" d="M37,64.57c.06,6.21,0,6.54,6.21,7.17,4.75.49,9.6,0,14.4,0s9.61,0,14.42.07c1.76,0,3.19.53,2.93,2.74-.16,1.39-2.46,3-4,2.53-6.12-1.72-12.18-.45-18.3,0-5.34.36-10.75,1-15.92-1.47-3.61-1.74-4.79-3-4.59-7.07.28-5.63,1.19-11.25,1.19-16.87,0-5-.92-10-1.33-15-.11-1.32-.29-3,.38-3.9.42-.59,2.34,0,3.57-.14A7.76,7.76,0,0,0,38.64,32c5.38-2.56,10.65-5.36,16.11-7.73a21.3,21.3,0,0,1,7-1.33c2.6-.16,4,1.58,3.62,4.17a15.05,15.05,0,0,1-1.44,5c-3,5.26-6.12,10.43-9.36,15.54a8.11,8.11,0,0,1-5.51,3.47,10.64,10.64,0,0,0-4.9,3c-1.33,1.35-2.53,2.15-4.32,1.44s-2.3-.12-2.38,1.57C37.37,59.61,37.16,62.09,37,64.57ZM59.36,27.88c-3.61,1.19-6.89,2.22-10.13,3.37A2.15,2.15,0,0,0,48,32.67c-.35,4.16-.57,8.33-.84,12.54C52.62,43.8,59.42,34.44,59.36,27.88ZM37.52,51.39c4.21-2,6.85-12.37,4.71-16.28a15.72,15.72,0,0,0-2.46,1.13c-.83.56-2.12,1.31-2.15,2C37.42,42.52,37.52,46.79,37.52,51.39Z"/><path class="cls-1" d="M530.33,11.32a28.2,28.2,0,0,1,1,3.88c.35,2.63.56,5.28.73,7.93.11,1.69.88,1.92,2.31,1.39s2.84-.94,4.27-1.38,3.13-.82,3.86,1-.76,2.91-2.24,3.55c-1.82.79-3.73,1.38-5.61,2a3,3,0,0,0-2.3,3.14c0,2.74-.15,5.48-.19,8.21,0,1.73.83,2,2.25,1.3a10,10,0,0,1,2.33-.85c1.56-.28,3.52-.65,4,1.34s-.68,3.34-2.74,3.79c-.89.2-1.76.44-2.65.65a4.18,4.18,0,0,0-3.53,4.15c-.24,3-.4,5.27,3,7.22,7,4,13.52,8.73,20.14,13.32.87.6,1.8,2.51,1.46,3.14a4.43,4.43,0,0,1-3.28,2A8.22,8.22,0,0,1,549,75.53c-4.65-2.9-9.21-6-13.82-8.93-1.17-.76-2.37-1.47-3.94-2.45-.25,1.73-.5,3.07-.62,4.42-.51,5.86-1,11.74-1.46,17.61,0,.41.09,1-.13,1.2a6.66,6.66,0,0,1-2.69,1.51c-1.24.16-1.82-.71-1.68-2.09.34-3.55.62-7.12.83-10.68.11-1.71,0-3.43,0-6-1.76,1.58-3,2.78-4.38,3.91a16.68,16.68,0,0,1-3.54,2.68c-.62.29-1.71-.43-2.59-.69a8.5,8.5,0,0,1,1-2c3.18-3.81,7.1-7.2,9.4-11.46,1.62-3,1.12-7.23,1.4-10.92,0-.25-1.33-.93-2-.87-1.88.18-3.74.86-5.61.9-.94,0-1.91-.93-2.86-1.44.64-.76,1.14-1.84,2-2.22,2.11-1,4.35-1.62,6.55-2.37a3.67,3.67,0,0,0,2.83-3.88c-.06-2.31-.06-4.63,0-7,.09-2-.93-2.2-2.5-1.9a49.81,49.81,0,0,1-6.38,1c-.88.05-1.82-.83-2.73-1.28.58-1,.94-2.44,1.78-2.8a65.48,65.48,0,0,1,7.59-2.37,2.76,2.76,0,0,0,2.19-3.13,91.63,91.63,0,0,1,.06-9.23c.1-1.35,1-2.64,1.49-4Z"/><path class="cls-1" d="M336.08,36.31c4.54,0,8.6-.1,12.66,0,5.73.16,8.52,3.35,7.9,9-.6,5.44-1.4,10.79-3.53,16-1.65,4-2.21,8.44-3.39,12.65-.69,2.47-1.59,4.89-2.48,7.3-.8,2.18-2.06,2.78-3.77,1.91s-2.13-2.47-1.26-4.39c1.12-2.47,2-5,3-7.6a2,2,0,0,0-1.33-3c-2.26-.81-4.55-1.54-6.79-2.39a17.22,17.22,0,0,1-4.24-2,3.23,3.23,0,0,1-1.14-2.71,2.92,2.92,0,0,1,2.4-1.56c3.43.48,6.81,1.26,10.2,2a36.71,36.71,0,0,1,3.68,1.3c1-5.69,2.29-11.07,2.93-16.53.4-3.42-.84-4.4-4.3-4.63A57.77,57.77,0,0,0,338,41.4a10.34,10.34,0,0,0-4.66,2c-1.4,1-2.25.36-3.32-.33s-1.14-1.56-.66-2.73c2.7-6.52,5.39-13,7.92-19.61a47.84,47.84,0,0,0,1.44-6.26,5.2,5.2,0,0,1,.79-2.26,2.66,2.66,0,0,1,2.14-.81,2.24,2.24,0,0,1,1.12,1.87,48,48,0,0,1-1.37,9.06c-1.23,4-3,7.88-4.59,11.81C336.52,34.84,336.34,35.53,336.08,36.31Z"/><path class="cls-1" d="M313.87,65.18c-.36,3.79-.59,7.61-1.1,11.38-.64,4.75-2.47,6.4-7.15,6.61-2.14.09-3.93.2-5.13,2.53-.86,1.68-2.74,1.66-3.87,0a7.94,7.94,0,0,1-1.45-3.85c-.38-7.19-.66-14.39-.75-21.6A4.74,4.74,0,0,1,296.21,57a43.93,43.93,0,0,1,7.51-4.81c4-1.94,7.46-.39,9,3.87a18.31,18.31,0,0,1,.85,4.62,44.59,44.59,0,0,1,0,4.48Zm-13.93,1.55a51,51,0,0,0,6.19-2c1-.5,2.52-1.87,2.4-2.64-.25-1.68-1.36-3.24-2.2-4.8-.11-.2-.76-.2-1.13-.14C300.61,57.83,298.28,61.81,299.94,66.73Zm3.27,11a2.71,2.71,0,0,0,1,0c1.21-.51,3.14-.83,3.43-1.68.62-1.85.4-4,.53-6-1.51.2-3,.38-4.52.61-.49.07-.95.34-1.43.4-3.15.39-2.5,2.66-2.39,4.7C300,78.13,301.57,78,303.21,77.78Z"/><path class="cls-1" d="M21.21,39c-.6.57-1.47,2.1-2.66,2.41-5,1.32-6.4,4.34-5.59,9.22.47,2.83,0,5.81.2,8.7a5.25,5.25,0,0,0,1.65,3.19c1.15,1,1.35,2.11.42,3-2.45,2.24-1.77,5-1.56,7.65.15,1.81.46,3.63.43,5.45s-.45,3.64-2.58,3.56c-2-.07-2.21-1.87-2.31-3.56-.13-2.23-.41-4.45-.61-6.68-.17-1.83-1.09-2-2.55-1.26a8.85,8.85,0,0,1-2.51,1.06,10.68,10.68,0,0,1-2.68-.23c.11-1-.14-2.38.42-3a13.83,13.83,0,0,1,4.27-2.89c2.27-1,3.3-2.27,3-4.88C8.21,57.07,8.25,53.32,8,49.6c-.11-1.94-.75-3.3-3.12-2.25a4.93,4.93,0,0,1-1.72.28C1.69,47.7,0,47.44,0,45.71c0-.87,1.32-2.16,2.32-2.55,5.11-2,5.11-1.91,5.37-7.23a11.66,11.66,0,0,1,.65-3.64A2.41,2.41,0,0,1,10.17,31c.49,0,1.13,1,1.33,1.71A19.44,19.44,0,0,1,12,36.15c.27,2.1,1.39,2.46,3.14,1.54a27.4,27.4,0,0,1,3.1-1.58C20,35.46,21.27,36.4,21.21,39Z"/><path class="cls-1" d="M494.6,70.34a12.11,12.11,0,0,1-3.72-.1,3.48,3.48,0,0,1-2.1-2.16,2.8,2.8,0,0,1,1.52-2.32c2.23-.37,2.89-1.87,3.14-3.64a59.7,59.7,0,0,0,.67-7.65,2.77,2.77,0,0,0-3.06-3.14c-3,.09-5,1.63-4.87,3.8.26,3.3.83,6.58,1.17,9.87.26,2.48.4,5,.52,7.45a2.78,2.78,0,0,1-2.5,3.19c-1.93.24-2-1.44-2.11-2.73-.74-7.85-1.46-15.7-2.06-23.56a3.37,3.37,0,0,1,1-2.73c.66-.38,1.91.27,2.91.46a6.57,6.57,0,0,0,2,.33c2-.29,4-.86,6.07-1.07a5.23,5.23,0,0,1,5.89,5.37,68.1,68.1,0,0,1-.74,9.12c-.26,2.05-.78,3.93,1.87,4.92a2.43,2.43,0,0,1,.9,2.2,5.34,5.34,0,0,1-2.59,2.32c-1.2.39-2.63.09-4,.09Z"/><path class="cls-1" d="M410.86,31.11c-.68-.53-1.94-1-2.23-1.87-.23-.66.52-1.94,1.19-2.58,1.24-1.19,2.82-2,4.08-3.16s1-2.51-.57-3.38c-1.38-.76-2.84-1.4-4.16-2.24s-2.45-2.11-1.52-3.94,2.34-1.94,4-1.22a48.32,48.32,0,0,1,5,2.24c1.73,1,2.66.42,3.57-1.13,1.92-3.28,3.9-6.54,6-9.72A16.14,16.14,0,0,1,429.41.4,3,3,0,0,1,432.1.25c.51.28.7,1.62.57,2.41A7,7,0,0,1,431.39,5c-2.71,4.16-5.48,8.29-8.13,12.49a7.62,7.62,0,0,0-.54,2.51,20.08,20.08,0,0,0,2.57,0c.81-.09,1.59-.47,2.4-.61,1.48-.25,3-.18,3.42,1.58s-.22,3.25-2.11,3.68c-5.2,1.16-10.25,2.63-14.81,5.52C413.4,30.73,412.3,30.75,410.86,31.11Z"/><path class="cls-1" d="M298.51,30.33c3.14.23,6.48.28,9.74.79a5.57,5.57,0,0,1,3.47,2.32c.41.68-.38,2.35-1,3.31a2.88,2.88,0,0,1-2.35.93c-3.6-.5-7.17-1.2-10.74-1.85-2.05-.37-4.38-1.06-4-3.51S296.43,30.27,298.51,30.33Z"/><path class="cls-1" d="M492.79,162.63a29.22,29.22,0,0,1,4.3.05c.81.14,2.05.64,2.19,1.21a2.9,2.9,0,0,1-.82,2.57A8,8,0,0,1,494.4,168a11.05,11.05,0,0,0-9.76,5.49c-1.11,1.75-1.36,4.22-1.45,6.38-.35,8.56-.45,17.12-.73,25.68a11.6,11.6,0,0,1-.92,4.06,2.44,2.44,0,0,1-2,.9,2.1,2.1,0,0,1-1.46-1.38,20.05,20.05,0,0,1-.33-4.45c.24-9.55.57-19.11.8-28.67.09-3.68-.62-4.13-4.1-2.84a82.6,82.6,0,0,0-7.88,3.1c-1.5.73-2.65,2.12-4,3.11a3.85,3.85,0,0,1-2.29.91,2.39,2.39,0,0,1-1.48-1.63,68.4,68.4,0,0,0-6.44-19c-.38-.76.27-2.88.93-3.14.92-.37,2.93,0,3.37.77,1.57,2.6,2.89,2.25,5.17.78a155.16,155.16,0,0,1,13.67-7.71c2.44-1.24,3.42-2.68,3-5.48a37.44,37.44,0,0,1-.19-8.2c.06-.84,1.25-1.61,1.92-2.41a7.7,7.7,0,0,1,1.45,2.17c.52,2.17.82,4.4,1.18,6.61.63,3.94.58,3.77,4.54,2.79a77.18,77.18,0,0,1,11.46-2.08c3.32-.31,4.62,1.5,3.13,4.53a118.63,118.63,0,0,1-6.44,10.59C494.75,159.94,493.92,161,492.79,162.63Zm-13.82-8c-.56,0-1-.22-1.19-.1-5.61,3-11.21,6-16.76,9.13-.33.18-.47,1.2-.3,1.7.58,1.73,1.33,3.39,2,5.07.62,1.49,1.52,1.86,3.14,1.2,3.76-1.52,7.62-2.78,11.4-4.25.66-.25,1.58-1,1.6-1.57C479,162.14,479,158.42,479,154.67Zm16.44-5.76c-3.44.8-6.71,1.51-9.93,2.38a2.2,2.2,0,0,0-1.31,1.61c-.12,3.86-.07,7.72-.07,11.58C486.63,164.34,494.72,153.41,495.41,148.91Z"/><path class="cls-1" d="M59.38,195.52a14.55,14.55,0,0,1-3.6-1.3,9.34,9.34,0,0,1-1.84-2.6,10.74,10.74,0,0,1,2.78-1.53c.9-.2,1.93.2,3.4.41-.32-4-.46-7.91-1-11.74-.77-5.66-1.82-11.27-2.73-16.91-.09-.57,0-1.17-.08-1.74-.15-1.54.39-2.7,2-2.92s1.93,1.11,2.22,2.38c2.09,9.14,3.75,18.34,3.87,27.76,0,1.39.28,2.78.46,4.48,5.76-.26,11.39-.48,17-.81.63,0,1.63-.57,1.76-1.06,1.32-4.77,2.51-9.58,3.69-14.39.08-.35-.16-.77-.22-1L82.38,174l-.72-1.32c1.49-1.14,2.91-2.4,4.49-3.4a4.42,4.42,0,0,0,2.18-4.41,34.1,34.1,0,0,1-.14-5.71c.09-.83,1.11-2.24,1.64-2.21a3.4,3.4,0,0,1,2.48,1.68,34.24,34.24,0,0,1,1.41,5.59c.66-.37,1.34-.73,2-1.13S96.78,162,97.3,162c1.47,0,3.58-.16,4.25.68,1.12,1.41-.15,3-1.59,3.86a38.85,38.85,0,0,0-4.46,2.7,10.35,10.35,0,0,0-2.65,3.62c-1.07,2.45-.38,4.14,1.92,6,2.67,2.18,4.54,5.39,6.54,8.3.81,1.18,1.43,1.89,3,1.93a153.88,153.88,0,0,0,30-2.46c3-.51,5.87-1.58,8.85-2.13a2.68,2.68,0,0,1,3.11,4,4.11,4.11,0,0,1-2.71,1.87c-7,.92-14,1.88-21,2.38-15,1.08-30,1.91-45,2.8-4,.24-8,.29-11.92.57a4.74,4.74,0,0,0-2.36,1.23c-.63.51-.91,1.6-1.57,1.86a10.93,10.93,0,0,1-3.16.27c0-.94-.07-1.89,0-2.82C58.6,196.35,59,196.05,59.38,195.52Zm29.71-5.69h7.15l.42-.6-5.37-6.42-.86.3Z"/><path class="cls-1" d="M287,144.31c3.86-1.43,7.2-2.92,10.69-3.86a33.45,33.45,0,0,1,9-1.24c3.13,0,4.55,1.94,3.94,5a15.33,15.33,0,0,1-5.21,9.1c-.55.46-1.58.35-2.39.5a6.52,6.52,0,0,1-.3-2.53,34.46,34.46,0,0,1,1.87-4.06c.93-2.07.33-3.07-1.93-2.88a16.73,16.73,0,0,0-4.3,1.12,1.94,1.94,0,0,0-1.08,1.39c-.22,7.86-.31,15.74-.53,23.61a4.26,4.26,0,0,0,3.13,4.67c5.33,2.09,10.57,4.42,15.83,6.7,1.47.64,2.94,1.43,2.11,3.53s-2.31,2.77-4.39,1.9c-4-1.66-7.9-3.44-11.86-5.14-1.48-.63-3-1.16-4.95-1.9-.16,3.6-.31,6.64-.44,9.69-.15,3.57-.29,7.13-.43,10.7-.07,1.65-.77,2.72-2.57,2.64s-2-1.4-2-2.83q0-8,.08-16a13.9,13.9,0,0,0-.58-4.73l-4.86,5.09a13.29,13.29,0,0,1-2.65,2.6,2.85,2.85,0,0,1-2.63-.12,2.73,2.73,0,0,1-.1-2.59c.9-1.47,2.32-2.62,3.25-4.08,1.31-2.06,2.26-4.34,3.58-6.4.52-.81,1.68-1.19,2.43-1.9s1.94-1.57,2-2.42c.51-7.19.8-14.4,1.17-22a21.47,21.47,0,0,0-2.61.59c-1.72.6-3.39,1.38-5.13,1.92-2.52.79-3.93-.41-3.61-3,.19-1.48.57-2.93.8-4.4.49-3,.94-6.05,1.42-9.07.09-.57,0-1.39.38-1.65a6.46,6.46,0,0,1,3-1.53c.42,0,1.49,1.51,1.44,2.28-.18,2.88-.69,5.75-1.09,8.62C287.31,142.36,287.18,143.08,287,144.31Z"/><path class="cls-1" d="M383.53,155.94c2.46-1.14,4.38-1.92,6.19-2.9,1.62-.88,2.74-.16,3.15,1.18A3.14,3.14,0,0,1,392,157a29.64,29.64,0,0,1-5.81,2.8c-1.87.71-2.86,1.7-2.62,3.85a55.21,55.21,0,0,1,0,5.66c2.64-1.18,4.58-2.06,6.54-2.9,1.69-.72,3.43-.35,4,1.28.24.73-1.1,2.35-2.09,3a20.58,20.58,0,0,1-4.74,2.16,5.13,5.13,0,0,0-3.64,5.34c.08,6.81.09,13.62.37,20.43.2,4.68-1.69,6.14-6,4.19-3.69-1.68-7.27-3.6-11.46-3.92-1.74-.13-3.28-1.1-3-3.23.2-1.61,2.47-2.59,4.45-2,2.47.73,4.9,1.58,7.36,2.34,1,.31,2.05.52,3.56.9.05-6.51.68-12.7-.47-19.35-2.72,1.13-5,2.08-7.25,3a12.63,12.63,0,0,1-3,1.12,13.76,13.76,0,0,1-3.15-.35,22.39,22.39,0,0,1,1.64-2.92,4.74,4.74,0,0,1,1.71-1c2.89-1.46,5.83-2.83,8.67-4.4.82-.45,1.87-1.43,1.91-2.21.12-2.6-.17-5.22-.32-8.21-1.49.34-2.49.67-3.53.79a44.3,44.3,0,0,1-6.19.42c-.78,0-1.53-.91-2.29-1.41.63-.83,1.11-2.14,1.93-2.41,2.59-.83,5.3-1.28,8-1.85,1.94-.42,2.73-1.52,2.59-3.55a60.45,60.45,0,0,1,0-6.73c0-.57.39-1.45.8-1.59a1.9,1.9,0,0,1,1.71.6,7.23,7.23,0,0,1,1.25,2.82C383.23,151.63,383.31,153.52,383.53,155.94Z"/><path class="cls-1" d="M168.46,149.29c-4.37,1.42-8,2.64-11.57,3.76a18.45,18.45,0,0,1-4.6,1c-.78,0-1.6-.85-2.41-1.31.52-.66.89-1.65,1.56-1.94,4.87-2.1,9.82-4,14.72-6.08q5.06-2.1,10.06-4.33c1.68-.75,3.3-1.12,4.28.86s-.25,3.45-1.95,3.82c-3.77.8-5,3.49-6.06,6.65a20.87,20.87,0,0,1-2.56,4.82c-1,1.52-.68,2.37.9,3.07a60.08,60.08,0,0,1,6,2.91c1,.56,2.22,1.68,2.21,2.54a3.79,3.79,0,0,1-2.13,2.66c-6.1,2.53-12.28,4.86-18.45,7.23a14.21,14.21,0,0,1-2.87.8c-2.11.32-3.28-1.11-2.35-3a31.94,31.94,0,0,1,2.72-4.16c3.56-5.1,7.17-10.17,10.68-15.3A27.61,27.61,0,0,0,168.46,149.29ZM162,168.51l.4.55c1.59-.78,3.23-1.49,4.75-2.39a5.47,5.47,0,0,0,1.6-1.89c.06-.1-.75-1.05-1.12-1a3.81,3.81,0,0,0-2.34.81A44.57,44.57,0,0,0,162,168.51Z"/><path class="cls-1" d="M211.12,190.34c-.21-4.65-.52-8.67-.55-12.7-.08-11.29-.07-22.59,0-33.88,0-4.29.13-8.59.2-12.88a9.44,9.44,0,0,1,.08-3,9.92,9.92,0,0,1,1.93-2.43c.62.74,1.73,1.45,1.76,2.21.22,4.81.19,9.63.25,14.45.18,13.54.33,27.08.59,40.61.06,3.4.65,6.78.71,10.17.06,3.21-1.45,4.25-4.47,3.21-1.87-.64-3.61-1.67-5.45-2.42-3.05-1.25-6.17-2.35-9.19-3.66a10,10,0,0,1-2.24-1.91c.74-.62,1.4-1.65,2.22-1.81,3.56-.67,7.09-.9,10.15,1.81C208,189,209.35,189.41,211.12,190.34Z"/><path class="cls-1" d="M253.81,170.49a20.28,20.28,0,0,0-2.52,3.86c-.77,2.09-2.21,2.23-3.75,1.54-2.1-.94-.79-2.44-.07-3.49,2.88-4.17,5.9-8.25,8.84-12.38,2-2.77,3.86-5.61,5.9-8.33,1.17-1.56,2.42-3.53,4.83-2.37,1.52.74.93,3-1,5.41-2.51,3.09-4.91,6.28-7.28,9.48a1.92,1.92,0,0,0-.27,1.73c2.84,3.79,2.59,8.38,3.06,12.66.64,5.93.55,11.94.78,17.92.07,1.67-.3,3.09-2.27,3.21s-2.21-1.47-2.35-2.89c-.52-5.7-.88-11.41-1.5-17.1-.34-3.08-1.09-6.11-1.65-9.17Z"/><path class="cls-1" d="M91.42,143.61c1-1.69,2-3,2.73-4.43,2.13-3.9,4.12-7.88,6.33-11.74a4.48,4.48,0,0,1,2.55-2,3.22,3.22,0,0,1,2.48,1.21c.33.39,0,1.59-.31,2.21-3.67,6.21-7.4,12.37-11.33,18.88a10.53,10.53,0,0,0,2.53,0c1.92-.51,3.76-1.29,5.69-1.72.77-.17,2.14.06,2.41.55a3.21,3.21,0,0,1-.1,2.74,5.52,5.52,0,0,1-2.54,2.19c-4.85,1.88-9.76,3.61-14.67,5.34a6.09,6.09,0,0,1-2.63.45c-2.15-.3-2.71-1.79-1.38-3.5.92-1.18,1.94-2.28,2.95-3.38,1.18-1.31,1.32-2.5,0-3.85-1.16-1.17-2.13-2.54-3.21-3.81s-1.53-2.45-.06-3.66,3-1.55,4.42,0C88.56,140.4,89.79,141.82,91.42,143.61Z"/><path class="cls-1" d="M170,191.66c1.72-.65,2.93-1.39,4.18-1.5,1-.08,2.65.43,2.85,1a3.71,3.71,0,0,1-.79,3.24c-1.1,1-2.73,1.46-4.13,2.16a10.3,10.3,0,0,1-2.61,1.31,8.46,8.46,0,0,1-4.13-.06c-.64-.23-1-1.82-1.08-2.82-.11-1.8.15-3.63.16-5.45a8.35,8.35,0,0,0-.46-1.94,11.47,11.47,0,0,1-2.82.26,2.67,2.67,0,0,1-1.87-1.19,2.32,2.32,0,0,1,.63-2.13,11.29,11.29,0,0,0,5.62-6.31c.22-.58,1.7-1.05,2.53-1a15.4,15.4,0,0,1,4,1.25c2.44,1,2.66,3,.54,4.7-1,.82-2.75,1.43-3,2.39C169.31,187.41,169.83,189.37,170,191.66Z"/><path class="cls-1" d="M388.25,139.79c-4.79-.37-9.6-.61-14.37-1.17a16.29,16.29,0,0,1-5.37-1.83c-.76-.39-1.65-1.79-1.46-2.44s1.5-1.28,2.42-1.71a2.64,2.64,0,0,1,1.71,0c7.74,2.39,15.62,1.52,23.48,1,1.68-.13,3,.07,3.51,1.89s-1.5,3.95-4.17,4.07c-1.91.09-3.82,0-5.73,0Z"/><path class="cls-1" d="M203.4,169.34a7.49,7.49,0,0,1-.87,2.1c-1.08,1.51-2.42,1.41-3.28-.25-2-3.8-4-7.61-5.69-11.53-.39-.89-.09-2.87.54-3.23a3.92,3.92,0,0,1,3.51.21C200.25,158.5,203.31,165.35,203.4,169.34Z"/></g></g></svg>