<svg xmlns="http://www.w3.org/2000/svg" width="194.54mm" height="72.26mm" viewBox="0 0 551.46 204.84"><defs><style>.cls-1{fill:#13284e;}</style></defs><g id="圖層_2" data-name="圖層 2"><g id="圖層_1-2" data-name="圖層 1"><path class="cls-1" d="M317.29,76.92c2.94-1.94,5.32-3.39,7.55-5,1.24-.93,1.16-2-.25-3A7.28,7.28,0,0,1,322,66.26a3.71,3.71,0,0,1,.29-3.1,3.34,3.34,0,0,1,2.72-.76,7,7,0,0,1,3.17,1.34c1.65,1.28,2.62.64,3.7-.74a72.66,72.66,0,0,1,5.65-6.59c.68-.67,2.12-.56,3.21-.81-.12,1.22.16,2.72-.45,3.62A63.93,63.93,0,0,1,335,65.76c-1.34,1.52-1.2,2.66.38,3.92,3.9,3.1,7.49,6.59,12.38,8.23.86.29,2.13,1.91,1.95,2.25-.58,1.1-1.71,2.58-2.71,2.64a9.44,9.44,0,0,1-5.15-1.29c-3.76-2.28-7.3-4.92-10.93-7.41a3.75,3.75,0,0,0-.8-.41c-2.59,2-4.93,3.77-7.21,5.61A71.71,71.71,0,0,0,317.49,84c-1.79,1.77-3.49,1.61-4.34-.81a18.18,18.18,0,0,1-1-4.84c-.65-9.85-1.19-19.72-1.78-29.58-.07-1.16-.38-2.3-.37-3.46,0-1.56.66-3,2.4-2.74.8.13,1.81,1.55,2,2.51C315.07,49,315.45,52.92,316,57l12.22-8.61-.1-.28c-2.27,1-4.52,2-6.82,3-1.69.67-3.85,2.17-4.91-.43s1.62-2.75,3.13-3.51c3.61-1.83,7.27-3.57,10.86-5.44.54-.28.82-1,1.21-1.59l-.56-.88c-2.45,1.15-4.94,2.23-7.35,3.47-1.09.57-1.94,1.76-3.07,2.06s-2.21-.31-3.33-.52c.29-.94.28-2.32.91-2.75,3.5-2.35,7.14-4.5,10.77-6.64a6.06,6.06,0,0,1,2.39-.64c4.88-.54,6.81,1.51,5.11,6a153.15,153.15,0,0,1-6.54,14.21c-.85,1.7-2.13,3.24-4.58,2.32-.58-.21-1.43.24-2.12.49-.37.13-.64.53-1,.71-6,3-6.47,8.11-5.48,13.85C316.94,73.22,317,74.62,317.29,76.92Z"/><path class="cls-1" d="M505.17,51.68l-17.93,6.63c-.62.22-1.34.78-1.83.62a17.35,17.35,0,0,1-3-1.63c.58-.79,1-2,1.76-2.3,14.19-5.13,28.13-11,43-14.06a61.59,61.59,0,0,0,7.32-2.44c.55-.19,1.08-.44,1.63-.62,1.64-.55,3.43-.6,4.08,1.17s-.72,3.21-2.37,3.8c-2.11.75-4.32,1.2-6.5,1.74-6.92,1.72-6.89,1.72-7.54,8.68-.29,3-.81,6.08-1.07,9.13-.42,4.87,1.77,7.54,6.66,8.05a51.43,51.43,0,0,0,7.45.17c4-.19,8.07-.73,12.11-.76.85,0,2.21,1.46,2.44,2.46a2.87,2.87,0,0,1-2.59,3.56A19.43,19.43,0,0,1,545,76c-6-.16-12-.12-17.93-.59a9.52,9.52,0,0,1-8.64-6.23,14.33,14.33,0,0,1-.59-5.74c.29-4.46.87-8.9,1.31-13.35a14.52,14.52,0,0,0-.15-2.11,71.37,71.37,0,0,0-8,2c-.79.29-1.24,1.85-1.59,2.91-2.34,7-4.54,14-7,21a12.68,12.68,0,0,1-2.78,4.35c-.54.57-1.89.38-2.87.53a7.7,7.7,0,0,1,0-2.62c2.53-7,5.19-14,7.75-21A21.52,21.52,0,0,0,505.17,51.68Z"/><path class="cls-1" d="M227.05,20.36c2.51.18,4.55-.28,5.92-2.4,1.81-2.82,1.93-2.81,4.37-.86a5.75,5.75,0,0,0,2.68.82c3.11.41,6.29.49,9.35,1.15,2.6.55,3.48,2.21,2.13,4.46-2.77,4.59-5.95,8.95-9.11,13.29-.37.51-1.71.31-2.6.44-.11-1-.63-2.16-.25-2.86,1.47-2.69,3.26-5.21,4.87-7.82A37,37,0,0,0,246,23.23c-3,0-5.5-.08-8,.08-.41,0-.94,1.07-1.08,1.71-.54,2.34-.94,4.7-1.4,7.05a4.18,4.18,0,0,1-.49,1.66,14.46,14.46,0,0,1-1.86,1.71c-.57-.71-1.52-1.36-1.64-2.14a29.81,29.81,0,0,1,.05-4.72c0-1.31,0-2.62,0-3.93-3.64.05-4.78,1.14-5.07,4.42S226,35.7,225.41,39c-.17,1-1.34,1.79-2,2.68-.49-.83-1.31-1.63-1.4-2.5-.25-2.47-.21-5-.27-7.46,0-1,0-2.08,0-3.27-2.16.35-3.2,1.06-3.12,3.13.09,2.65-.15,5.32-.17,8,0,1.4,0,2.76-1.83,3-2,.23-2-1.45-2.15-2.66-.36-2.36-.56-4.75-.82-7.12l-.9-.32c-.6,1.28-1.17,2.57-1.82,3.82-.57,1.09-1.23,2.14-1.86,3.22-1-.81-2.52-1.41-3-2.46a82.86,82.86,0,0,1-3.82-10.24,3.08,3.08,0,0,1,1.28-2.7c.63-.31,1.9.5,2.79,1,.37.2.42.92.76,1.25.84.83,1.82,2.29,2.64,2.22A3.41,3.41,0,0,0,213.11,25c.1-2.56,1.83-3.23,3.9-1.74A3.46,3.46,0,0,0,222.44,21c.25-1.21.33-2.47.6-3.68.35-1.61,1.46-2.71,3-2.08.73.3,1,1.88,1.31,2.93A6.66,6.66,0,0,1,227.05,20.36Z"/><path class="cls-1" d="M322.71,10.4c-.51.84-.89,1.38-1.17,2a258.23,258.23,0,0,1-30.8,49.34,8,8,0,0,1-3.13,2.74c-1.11.38-2.57-.26-3.87-.45.31-1,.34-2.27,1-3,2.21-2.54,4.77-4.78,7-7.34A149.2,149.2,0,0,0,309.8,26c2.66-5,5.15-10.19,7.75-15.28,1-2,1-3.59-1.49-4.46a3.48,3.48,0,0,1-1.65-1.06c-.48-.69-1.06-1.67-.88-2.35a2.58,2.58,0,0,1,1.85-1.63c3.31.09,6.41-.39,9.5,2.54,4,3.82,9.17,6.55,14.07,9.35,4.31,2.47,9,4.32,13.39,6.6a5.35,5.35,0,0,1,2.53,2.68c.19.59-1,2-1.85,2.47-1.27.69-2.7,1.67-4.31.21A19.17,19.17,0,0,0,345,22.64c-6.1-3.38-12.23-6.71-18.35-10.06C325.39,11.91,324.17,11.21,322.71,10.4Z"/><path class="cls-1" d="M224,52.62c2.74,1.9,5.33,3.52,7.69,5.43a2.8,2.8,0,0,1,.36,2.73,2.79,2.79,0,0,1-2.62.83c-2.89-1.4-5.62-3.12-8.6-4.82-2.24,2.67-4.86,5.62-7.28,8.73a120.37,120.37,0,0,1-20.52,20.27c-1.1.87-2.18,1.79-3.27,2.69s-2.45,1.83-3.66.32-.49-2.69.94-3.75c3.2-2.37,6.46-4.7,9.45-7.32,8.48-7.44,15.39-16.29,22.08-25.31,1-1.41,2-2.92,3-4.43-.56-.28-.72-.43-.84-.41-1.84.34-3.77.46-4.12-1.9s2-2.76,3.53-3c3.52-.43,7-.54,10.51,1,8.07,3.49,16.27,6.7,24.4,10.08,1.37.57,3.27,1,2.67,3.17s-2.72,3-5,2.08c-5.14-2.1-10.23-4.31-15.36-6.43-2.3-.94-4.62-1.84-7-2.65C225.86,48.35,225.73,48.43,224,52.62Z"/><path class="cls-1" d="M386.3,52.42c0-3.64-.16-6.64.1-9.59a4.28,4.28,0,0,1,2.11-2.52,42.31,42.31,0,0,1,5.66-2.54c4-1.61,7.42.51,7.29,4.8-.31,10.16-.78,20.31-1.31,30.45-.2,3.78-1.21,4.11-4.48,2.24a4.38,4.38,0,0,0-3.18-.31c-2.87,1-4.65.1-4.87-2.87C387.09,65.31,386.7,58.53,386.3,52.42Zm10-9.64c-2.55.45-3.85,1.19-4,3a64.39,64.39,0,0,0-.29,6.66c0,1,.35,2.42,1.85,1.94.93-.3,2.29-1.21,2.35-1.93C396.49,49.41,396.34,46.29,396.34,42.78Zm-.25,17.35c-2.13-.46-3.95-.69-4,1.75a27,27,0,0,0,.82,5.89,1.55,1.55,0,0,0,1.2.9,1.51,1.51,0,0,0,1.16-.93C395.61,65.23,395.82,62.7,396.09,60.13Z"/><path class="cls-1" d="M36.68,53.62c-2.78,1.15-5.57,2.26-8.33,3.46-1.28.56-2.66,1.69-3.68-.06s.21-2.77,1.58-3.65c4.64-3,9.88-4.28,15.2-5.23a4.32,4.32,0,0,1,3.44,1.29c.42.48-.25,2.24-.83,3.18-1.89,3.11-4,6.06-5.93,9.17a3.44,3.44,0,0,0-.07,2.51,31.5,31.5,0,0,0,2.22,5.21c.42.76,1.42,1.71,2.14,1.69a77.43,77.43,0,0,0,8.15-.87c1.64-.23,3.09-.06,3.57,1.75.42,1.62-1.15,3.26-3,3.43-2.81.24-5.62.62-8.44.73-1.86.07-2.26.92-2.5,2.6A59.65,59.65,0,0,1,38.08,88c-.27.86-1.79,1.32-2.73,2-.38-1-1.13-2-1.08-2.92.13-2.39.63-4.77.95-7.15.26-2-.43-2.8-2.54-2.27-2.89.73-5.82,1.36-8.75,1.92-1.34.26-3,.74-3.48-1.26S21.29,75.37,23,75c2.91-.66,5.85-1.18,8.75-1.87,1.38-.32,3.19-.37,3.23-2.44s-1.36-2.49-3.13-2.75c-2.44-.35-3-2.3-1.33-4.45s3.31-3.95,4.9-6a31.69,31.69,0,0,0,1.83-2.87Z"/><path class="cls-1" d="M121,82.48c1.42-2.29,2.6-4.36,4-6.31a2.47,2.47,0,0,0,0-3.35c-1.57-2-3-4.2-4.49-6.28-1.71-2.36-1.47-4.64,1-6.07,4.1-2.33,8.29-4.54,12.57-6.51,1.45-.67,3.31-.45,5-.63.17,1.82,1,3.86.38,5.41a71.9,71.9,0,0,1-5.29,11.19c-1.15,2-1,3.37.84,4.31,4.27,2.18,8.65,4.15,13,6.19.68.31,1.39.54,2.08.82a2.34,2.34,0,0,1,1.52,3.22A5.69,5.69,0,0,1,149,86.72a2.8,2.8,0,0,1-2.16-.18c-5.17-2.43-10.37-4.81-15.4-7.5-1.69-.91-2.54-1.18-3.82.52C125.24,82.75,124.05,83.19,121,82.48Zm8.72-13.21c1.64-3.35,3.14-6.43,4.65-9.5l-.73-.62c-1.23.57-2.49,1.07-3.67,1.73C125,63.67,124.91,64.68,129.72,69.27Z"/><path class="cls-1" d="M440.07,43.55l.35.06c1.33.15,3.43-.15,3.85.56,1,1.72-.45,3.14-1.92,4-2.05,1.2-2.58,2.8-2.56,5.12,0,7.8-.11,15.61-.38,23.42a15.35,15.35,0,0,1-1.47,5.65c-.32.69-2.26,1.39-2.77,1.05a4.07,4.07,0,0,1-1.44-3,43.69,43.69,0,0,1,.84-5.61c.37-2.69-.91-4.32-3.34-5.42a54.81,54.81,0,0,1-7.68-4.09c-.93-.62-2-2.39-1.7-3.24.53-1.68,2.18-2.4,4.08-1.6,2.73,1.14,5.46,2.26,8.51,3.52V52.26C430.56,54,427.1,55.48,423.65,57c-.68.31-1.33,1-2,1a13.64,13.64,0,0,1-3.06-.74c.4-.95.54-2.34,1.25-2.76,3.22-1.88,6.6-3.49,9.91-5.21,1.11-.57,2.19-1.2,3.27-1.81a3.84,3.84,0,0,0,2.14-4.74,5.58,5.58,0,0,1,.75-3.44,2.38,2.38,0,0,1,2.11-.83c.58.14,1.13,1.07,1.37,1.77A24.38,24.38,0,0,1,440.07,43.55Z"/><path class="cls-1" d="M143.35,39a25.69,25.69,0,0,0-3.65.67,104,104,0,0,0-26.38,13.82c-1,.77-1.54,2.34-2.13,3.61-.27.57,0,1.4-.27,1.95A10.39,10.39,0,0,1,109.3,61c-.52-.55-1.33-1-1.51-1.66-.82-2.87-1.43-5.8-2.16-8.69-.63-2.48-1.27-5-2-7.42-.37-1.27-.81-2.46.87-3.08a2.24,2.24,0,0,1,3.24,1.35c.66,1.69,1.28,3.4,1.88,5.12.3.82.52,1.67.87,2.82,3.43-2,6.47-4,9.72-5.58,7.3-3.53,14.71-6.84,22.07-10.23a3.67,3.67,0,0,1,.72-.2c1.85-.52,4.15-1.45,5.28.4.75,1.23.46,3.57-.16,5.08a77.53,77.53,0,0,1-4.59,8.5,3.44,3.44,0,0,1-1.41,1.37,9.87,9.87,0,0,1-2.34.4c-.08-.76-.44-1.65-.18-2.27C140.63,44.44,141.85,42.1,143.35,39Z"/><path class="cls-1" d="M34,10.27c-1.87-2.07-3.54-3.89-5.17-5.74-1-1.11-1.88-2.38-.43-3.67a2.82,2.82,0,0,1,4.24.2,37.87,37.87,0,0,1,4.55,5.88c1,1.71,2.13,2.12,3.86,1.58,2.14-.66,4.31-1.24,6.4-2,1.7-.63,3.17-.67,4,1.11.57,1.2-1.14,3.47-2.72,4-10.05,3.14-20.15,6.09-30.1,9.51C13.21,23,8,25.69,2.7,27.94a9.19,9.19,0,0,1-2.7.25c.33-1,.36-2.51,1-2.87,4.72-2.57,9.49-5.07,14.4-7.25,5.23-2.31,10.63-4.23,16-6.36A26.76,26.76,0,0,0,34,10.27Z"/><path class="cls-1" d="M426.63,36.1c-.61-2.25-.37-3.84,1.91-4.56,1.49-.47,2-1.55,1.91-3.07-.09-2.39,0-4.78,0-7.8-2.36,1-4.3,1.89-6.23,2.76-1.25.56-2.53,1.24-3.45-.42s.16-2.6,1.5-3.33a46.59,46.59,0,0,1,5.49-2.91c2.49-.94,3.22-2.52,2.7-5a8,8,0,0,1-.23-3.2,10.1,10.1,0,0,1,1.61-2.71c.88.56,2.07.93,2.55,1.73a18.89,18.89,0,0,1,1.34,4.22,25.48,25.48,0,0,1,4-1.8,9.36,9.36,0,0,1,2.95.2c-.21,1.22-.06,2.71-.73,3.58-.81,1-2.47,1.37-3.47,2.32a7.09,7.09,0,0,0-2.14,3.3,49.67,49.67,0,0,0-.75,6.91c-.12,1.61.65,1.86,2,1.27a9.44,9.44,0,0,1,3.24-1,2.83,2.83,0,0,1,2.1,1.32,2.44,2.44,0,0,1-.35,2.21,7.19,7.19,0,0,1-2.72,2.08c-3.39,1.34-6.85,2.54-10.31,3.69A12.36,12.36,0,0,1,426.63,36.1Z"/><path class="cls-1" d="M41.32,24.91c.58,0,1.16,0,1.74,0,2.64.13,3.31,1,2.29,3.49-.91,2.21-2.26,4.24-3.23,6.43a18.25,18.25,0,0,0-.68,3.35c-.29,1.3-.28,2.94-1.08,3.76s-2.34.5-3.58.58a21.83,21.83,0,0,1-3.13-.1c-2.28-.2-4.66-.12-6.78-.81-.95-.32-1.72-2.15-2-3.41-.48-2.35-.49-4.79-.78-7.18a3.13,3.13,0,0,1,2.71-3.81c4.8-.94,9.63-1.72,14.45-2.57ZM39.2,30.65l-.33-.58c-2.65.48-5.32.89-7.95,1.52-.62.15-1.54,1-1.54,1.53A51,51,0,0,0,30,38.9C34.76,37.44,36.82,33.88,39.2,30.65Z"/><path class="cls-1" d="M229.24,79.83c2.51.94,4.6,1.67,6.65,2.49,1.66.67,3.4,1.37,2.31,3.77-.94,2.09-2.29,2.39-4.7,1.57-2.64-.9-5.43-1.39-8.1-2.21-1.18-.37-3.05-1-3.16-1.75a5.88,5.88,0,0,1,1.31-3.92c2.31-3.08,4.86-6,7.31-8.94l-.58-.78c-1,.3-2.05.67-3.09.89a23.46,23.46,0,0,1-4.87.75c-.74,0-2.09-1-2.06-1.52.05-.87.91-2.4,1.5-2.43,5.76-.32,10.52-3.4,15.7-5.34.81-.3,2.42-.09,2.78.45a3.17,3.17,0,0,1-.26,2.9c-2.41,3.27-5,6.37-7.55,9.57C231.38,76.67,230.46,78.11,229.24,79.83Z"/><path class="cls-1" d="M120.11,13.37a5.46,5.46,0,0,1-2.22-.06,14.24,14.24,0,0,1-2.49-2c.84-.73,1.57-1.82,2.55-2.13,1.8-.57,3.79-.52,5.63-1,5-1.3,10.08-2.74,15.11-4.12a5.26,5.26,0,0,1,2.15-.47c.9.17,2.12.58,2.43,1.24s-.31,1.78-.73,2.58a2.37,2.37,0,0,1-1.39,1q-10.43,2.87-20.86,5.65Z"/><path class="cls-1" d="M520.08,33.94c.2-.91.28-1.48.46-2,2.7-8.58,5.34-17.19,8.23-25.71a3.92,3.92,0,0,1,3.11-2c1.69.09,1.4,1.78,1,3-2.1,6.46-4.25,12.9-6.4,19.35-.53,1.56-1,3.15-1.72,4.65a16.32,16.32,0,0,1-2.12,3.58,2.4,2.4,0,0,1-2,.52C520.37,35.25,520.22,34.27,520.08,33.94Z"/><path class="cls-1" d="M505,41.78c-.37.42-.94,1.65-1.65,1.74a3.72,3.72,0,0,1-2.82-1.19,8.21,8.21,0,0,1-1.17-3.23c-1.13-4.49-2.2-9-3.31-13.48-.44-1.76-.07-3.18,1.74-3.84a2.49,2.49,0,0,1,3.44,2c1.15,4.38,2.09,8.82,3.05,13.24C504.55,38.36,504.68,39.77,505,41.78Z"/><path class="cls-1" d="M508.62,23.12c.32-2.06-.48-4.63,2-4.8,2.15-.16,2.2,2.33,2.61,3.95,1.1,4.39,2.18,8.8,3.06,13.25.18.93-.53,2-.83,3.06-1-.39-2.48-.5-2.83-1.21a38.4,38.4,0,0,1-2.82-7.27A67,67,0,0,1,508.62,23.12Z"/><path class="cls-1" d="M125.53,23.08a27.94,27.94,0,0,1,1.15-4.49,2.61,2.61,0,0,1,2-1.38c.51,0,1.29,1.16,1.39,1.88.46,3.35.7,6.73,1.06,10.1a32,32,0,0,0,.63,3.9c.32,1.41.41,3-1.21,3.19-.84.09-2.43-1.24-2.69-2.2C126.86,30.43,126.26,26.68,125.53,23.08Z"/><path class="cls-1" d="M234.09,5.08c2.16.42,3,1.49,2.06,3.21a5.25,5.25,0,0,1-2.7,2.28c-3.68,1.24-7.46,2.2-11.19,3.29-1.44.43-2.95.68-3.64-1s.76-2.42,2-2.88C225.07,8.29,229.59,6.71,234.09,5.08Z"/><path class="cls-1" d="M125.09,32.94a1.38,1.38,0,0,1,0,.5c-.51,1.15-1,2.3-1.56,3.45-.93-.92-2.24-1.69-2.71-2.81-1.39-3.27-2.45-6.69-3.63-10.06-.55-1.56-.14-3.11,1.35-3.51a3.52,3.52,0,0,1,3.1,1.38c1.55,3.53,2.71,7.23,4,10.86Z"/><path class="cls-1" d="M133.85,26.44c.89-4.86,1.52-9.11,2.54-13.26.22-.88,1.87-1.41,2.86-2.1.45.92,1.43,1.93,1.28,2.73-.83,4.53-1.86,9-3,13.49-.14.56-1.65,1.37-2,1.17A6.74,6.74,0,0,1,133.85,26.44Z"/><path class="cls-1" d="M328.82,30.65c-.05,2.71-1.45,3.78-3.07,2.81q-4.15-2.51-8.12-5.32c-1.11-.79-2.39-1.85-1.23-3.5s2.56-2,4.27-.81c2.23,1.59,4.53,3.08,6.68,4.77A7.45,7.45,0,0,1,328.82,30.65Z"/><path class="cls-1" d="M436.08,140.7c.86-3.06,1.79-6.1,2.53-9.19.38-1.59-.6-2.22-2-1.72-3.05,1.07-6.13,2.11-9.07,3.44C423.66,135,420,137,416,139c1,4.06,2,8.14,2.93,12.24a16.32,16.32,0,0,1,.56,4.43,2.9,2.9,0,0,1-1.49,2.18,2.6,2.6,0,0,1-2.25-1.21c-1-2.37-1.5-4.9-2.38-7.31-1.57-4.27-3.12-8.57-5-12.71-.75-1.66-.22-2.42.86-3.35s2.13-.48,3,.46l2.41,2.55c6.4-5.81,14-9.08,22-11.5,6.38-1.94,8.23-.22,6.9,6.41-1,5.1-2.71,10.08-4.07,15.12-.28,1-.85,2.24-.55,3.12.91,2.63-.45,3.9-2.27,5.39a25.46,25.46,0,0,0-7.68,9.76c1.92.46,3.56.93,5.24,1.25,5.36,1,10.74,1.92,16.08,3.05a2.9,2.9,0,0,1,1.89,2,3.23,3.23,0,0,1-3,3.63A13.89,13.89,0,0,1,445,174c-2.83-.66-5.64-1.42-8.44-2.2-1.9-.53-2.77-.08-2.69,2.09.23,5.81.36,11.63.43,17.45,0,1.86.32,4.36-2.41,4.35s-2-2.5-2.13-4.22c-.36-6-.62-12.1-1.11-18.13-.1-1.16-1.1-2.24-1.68-3.36a17.05,17.05,0,0,0-3.58,1.93,7.9,7.9,0,0,0-2.81,7.12q.72,5.67,1.37,11.35a16.11,16.11,0,0,1,.15,3.46c-.12,1.08-.09,2.33-1.85,2.44a2.1,2.1,0,0,1-2.54-2c-.57-3.43-1.11-6.86-1.67-10.3a9,9,0,0,0-.23-.93c-.22,0-.45-.1-.5,0-3.68,4.18-7.32,8.38-11,12.53a5.37,5.37,0,0,1-2.3,1.69c-.72.19-2.15-.15-2.33-.62a3.1,3.1,0,0,1,.49-2.58c8.4-10.72,16.87-21.38,25.29-32.08a14.67,14.67,0,0,0,1.23-2.46c-1.66-.27-3-.39-4.2-.71-.71-.18-1.87-.68-1.88-1.08a6.65,6.65,0,0,1,.8-2.89c.17-.36.81-.53,1.27-.73,3.53-1.55,3.77-2.25,1.9-6.22a26.41,26.41,0,0,1-3.74,1c-.61.09-1.76-.3-1.86-.69a3.1,3.1,0,0,1,.55-2.17,3.91,3.91,0,0,1,1.59-1.17c3.08-1.56,5-3.72,5.18-7.48.11-2.68,2-3.17,4.2-1.57a15.36,15.36,0,0,0,4,2.24c1.46.52,2.08,1.24,1.7,2.75-1.62,1.12-3.25,2.23-4.86,3.38-.52.37-1.37.85-1.37,1.27,0,2.42.26,4.83.42,7.24l1.06.18C435.14,149.74,435.13,145,436.08,140.7Z"/><path class="cls-1" d="M330.67,155.57,316.91,160c.33,7.11.71,13.8.93,20.49.08,2.37,1,3.53,3.43,3.37,4.82-.32,9.63-.6,14.45-.78q8.2-.3,16.42-.35c.7,0,2,.8,2,1.09a5.61,5.61,0,0,1-1.25,3.19c-.67.62-2,.62-3.08.68-9,.51-17.93,1-26.89,1.44-.58,0-1.17,0-1.75.06-7,.07-8-.93-8.25-7.87-.23-5.72-.74-11.42-1-17.14-.1-1.91-1-2.32-2.59-1.73-3.48,1.33-6.94,2.73-10.41,4.1-.61.25-1.25.77-1.82.7-.81-.08-2-.41-2.24-1a2.49,2.49,0,0,1,.68-2.33,32.45,32.45,0,0,1,5.58-3.19,64.35,64.35,0,0,1,7.49-2.71,2.08,2.08,0,0,0,1.7-2.75,20.14,20.14,0,0,1-.5-4.68,2.74,2.74,0,0,1,1.56-2.08c.65-.14,1.58.72,2.3,1.27.28.21.35.73.47,1.13,1.59,5,.84,4.78,6.57,3.16,2.56-.73,5-1.72,7.59-2.45a3.72,3.72,0,0,0,3-3.79c.06-2-.08-4-.19-6-.09-1.56-.21-3.21,1.85-3.46s2.28,1.36,2.38,3c.14,2.39.35,4.77.52,7.12,3.93.51,5-.23,5.36-4,.47-5.46.73-10.94,1.06-16.41.08-1.35,0-2.93,1.83-3s2.19,1.6,2.19,3c0,4.65-.14,9.3-.21,13.94,0,1,0,1.95,0,3.1,2.12-.54,4-1.14,5.94-1.43a2.68,2.68,0,0,1,2.3.77,2.85,2.85,0,0,1-.56,2.38,7.68,7.68,0,0,1-6.14,3.31,2.8,2.8,0,0,0-3.08,2.58c-.47,2.61-1.07,5.19-1.58,7.79-.29,1.51-.8,3,1.28,3.94.3.13.26,2.07-.22,2.76a9.72,9.72,0,0,1-2.9,2.29,45.83,45.83,0,0,1-6.86,4,7.75,7.75,0,0,1-4.9,0c-1.63-.52-2-2.2-.46-3.3s1.82-2.67,1.83-4.35C330.68,162.7,330.67,159.42,330.67,155.57Zm9.09-2-1.11-.7c-.92.73-2.57,1.4-2.64,2.2-.28,3.62-.12,7.28-.12,10.93l.9.15Z"/><path class="cls-1" d="M235.32,192.27c0,2.94,0,5.39,0,7.84a10.46,10.46,0,0,1-.15,3c-.22.72-1.07,1.82-1.52,1.76-.81-.1-2.06-.85-2.16-1.49a39,39,0,0,1-.24-5.93c0-1.69,0-3.39,0-5.08l-.74-.27a22.5,22.5,0,0,1-1.86,2,39.29,39.29,0,0,1-4.29,3.35,2.06,2.06,0,0,1-2-.24,2.31,2.31,0,0,1,0-2A13.67,13.67,0,0,1,224,193c2.21-3.08,4.49-6.1,6.56-9.27a3.83,3.83,0,0,0-2.39-5.58c-4.06-.93-5-3.16-2.73-6.59,1.45-2.17,3.07-4.23,5-6.88a47,47,0,0,1-5.34-.38,5.67,5.67,0,0,1-2.86-1.48c-.23-.24.47-1.82,1.1-2.39,3.37-3.07,6.76-6.14,10.37-8.9.89-.68,3.38-.75,3.91-.1,1.09,1.31-.11,2.77-1.38,3.72-1.56,1.16-3.17,2.26-4.76,3.39l.44.76c1.9-.86,3.8-1.76,5.73-2.58,1.25-.52,2.68-1.52,3.77.12s.33,3.15-1,4.37c-1,.87-1.9,1.76-3.46,3.2a26.66,26.66,0,0,0,4.14.88c2.69.1,6,4.94,4.65,7.28a3.35,3.35,0,0,1-2.88.94,6.07,6.07,0,0,0-7.35,5.74c-.42,4.87,2,7.61,6.1,9.4a56.16,56.16,0,0,0,5.75,2.38c2.13.66,2.19,2.13,1.69,3.72a2.53,2.53,0,0,1-3.61,1.65c-2.39-.92-4.7-2.06-7.06-3.09C237.6,193,236.83,192.8,235.32,192.27Zm-4-19.51,4.8-2.7C233.63,168.6,232.68,169.17,231.29,172.76Z"/><path class="cls-1" d="M251.41,140.07c-4.2,1.43-8.55,2.52-12.57,4.34-8.77,4-17.38,8.3-26,12.52-1.9.93-3.55,2.11-3.81,4.55-.06.6-1,1.1-1.48,1.64-.55-.56-1.48-1.05-1.59-1.69-.72-4.41-1.39-8.84-1.79-13.3-.06-.73,1.16-1.84,2-2.28.38-.18,1.75.79,2,1.5a47.88,47.88,0,0,1,1.66,5.77L231,142.77c-.24-3.14-.5-6.15-.69-9.17-.18-2.81-.42-3-3.11-2.38a23.1,23.1,0,0,1-5.16.61c-.72,0-1.44-.85-2.15-1.31.46-.63.79-1.53,1.41-1.84a58.79,58.79,0,0,1,6-2.5c2.52-.92,3.76-2.55,3.48-5.3a7.32,7.32,0,0,1,.16-3.44c.4-.92,1.55-1.5,2.38-2.22.61.75,1.55,1.43,1.77,2.29a32.63,32.63,0,0,1,.44,5.1,10.15,10.15,0,0,1,2.68-1.22c1-.1,2.69-.14,3,.43a3.51,3.51,0,0,1,0,3.29c-.87,1.06-2.51,1.45-3.69,2.3-.84.61-2,1.44-2.11,2.3-.52,3.75-.7,7.55-1,11.3,4.43-1.52,8.89-3.29,13.49-4.56a45.41,45.41,0,0,1,8.59-1c1.76-.13,2.36,1,2.05,2.6a8.43,8.43,0,0,1-1,3.28c-2.43,3.37-5,6.6-7.57,9.89a.49.49,0,0,1-.19.16l-4,1.24c.29-1.27.29-2.71.92-3.78,1.17-2,2.72-3.77,4.05-5.68a20,20,0,0,0,1.22-2.29Z"/><path class="cls-1" d="M147.41,159.71c1.55-.81,2.61-1.41,3.7-1.94a7.24,7.24,0,0,1,2.51-1,2.93,2.93,0,0,1,2.35.83,2.58,2.58,0,0,1-.63,2.34,29.05,29.05,0,0,1-3.63,2.6c-1.44,1-3.77,1.88-4.09,3.2a28.49,28.49,0,0,0-.37,9c.2,2.23,1.81,3.79,4,4.71,4.43,1.86,8.82,3.83,13.23,5.74,1.34.57,3,.71,2.52,2.94s-1.89,3-3.85,2.33c-3.73-1.34-7.37-3-11-4.47-1.45-.6-2.87-1.27-4.8-2.13a31,31,0,0,0-.26,3.82c.15,2.57.46,5.13.66,7.7a5.58,5.58,0,0,1-.09,2.68c-.42.86-1.36,1.95-2.13,2s-1.91-1.18-2-2c-.52-3.52-.71-7.09-1-10.64-.12-1.22-.31-2.43-.55-4.31a35.5,35.5,0,0,1-4.07,3.9c-.86.59-2.15.54-3.25.77.13-1.06-.08-2.37.46-3.15a42.83,42.83,0,0,1,5.4-6.51c3-2.81,1.79-6,1.85-9.94a24.59,24.59,0,0,1-4.1,2.28c-1.12.36-2.9.7-3.52.12-1.29-1.19-.38-2.62.9-3.51a41.43,41.43,0,0,1,4.83-3.07A4.53,4.53,0,0,0,143,160a25.2,25.2,0,0,1,.92-5.6c.21-.67,1.44-1,2.2-1.53a8.65,8.65,0,0,1,.89,2.09C147.26,156.3,147.27,157.71,147.41,159.71Z"/><path class="cls-1" d="M107.59,189.06c-1.28.69-2.11,1.47-3,1.56a13.65,13.65,0,0,1-3.53-.52,19.13,19.13,0,0,1,1.21-3.41,3.56,3.56,0,0,1,1.87-1.18c3-1.1,3.76-3.28,3.39-6.27-.47-3.78-.74-7.6-1.05-11.4-.12-1.5-.77-1.82-2.14-1.37-1.68.55-3.87,1.76-4.8-.52s1.68-3,3.12-3.66c2.59-1.26,3.92-2.93,4-5.91,0-1.21,1.37-3.36,2.09-3.35,2.06,0,2.32,1.94,2.23,3.73a5.7,5.7,0,0,0,.12.85,11,11,0,0,1,3.21-1,9.39,9.39,0,0,1,3,1.07c-.42,1-.78,2-1.28,3a1.85,1.85,0,0,1-1,.67c-3.29,1.11-4,3.53-3.64,6.67.35,3.47.37,7,.72,10.44a2.62,2.62,0,0,0,1.48,1.83c2.26.69,2.44,2.3,1.15,3.56-2.61,2.53-2.11,5.25-1.33,8.18.14.55.31,1.34,0,1.7a6.76,6.76,0,0,1-2.48,2.37c-.39.16-1.74-1.05-2.08-1.87A35.15,35.15,0,0,1,107.59,189.06Z"/><path class="cls-1" d="M141.46,139.57c-1.81,3.84-3.58,7.82-5.55,11.7a49.54,49.54,0,0,1-4,6.55c-.49.67-1.72.81-2.61,1.2-.1-.89-.53-1.92-.23-2.65,1-2.52,2.42-4.9,3.46-7.42,1.3-3.12,2.39-6.33,3.55-9.51.67-1.83,1.57-3.11,3.87-2.28a2.1,2.1,0,0,0,1.74-.38,5.25,5.25,0,0,1,5.86-.82c6.55,2.77,13,5.73,19.49,8.71a2.5,2.5,0,0,1,1.24,1.91,2.33,2.33,0,0,1-1.42,1.75,8,8,0,0,1-4.06-.05c-3.64-1.37-7.14-3.11-10.74-4.59S144.94,140.92,141.46,139.57Z"/><path class="cls-1" d="M151.45,125.31c-2.85,1.27-5.72,2.5-8.55,3.8a22.17,22.17,0,0,0-4.16,2.24,13.51,13.51,0,0,0-2.56,3.09c-.25.35,0,1-.2,1.45-.73,1.46-1.58,2.87-2.38,4.31a21.1,21.1,0,0,1-2.7-3.24,31.82,31.82,0,0,1-2.33-5.74c-.24-.81-.14-2.23.38-2.64a3.76,3.76,0,0,1,3.1-.67,4.25,4.25,0,0,0,3.94-.33c5-2.41,10-4.81,15.16-7a17.18,17.18,0,0,1,5.77-1.2c1.81-.09,2.77,1,2.06,2.94a25.14,25.14,0,0,1-7.42,11c-.74.62-2.06.54-3.12.79a9.4,9.4,0,0,1,.38-2.95c.89-1.84,2.05-3.56,3.1-5.33Z"/><path class="cls-1" d="M231.29,172.76c1.39-3.59,2.34-4.16,4.8-2.7Z"/></g></g></svg>