<svg xmlns="http://www.w3.org/2000/svg" width="188.61mm" height="29.59mm" viewBox="0 0 534.65 83.88"><defs><style>.cls-1{fill:#13284e;}</style></defs><g id="圖層_2" data-name="圖層 2"><g id="圖層_1-2" data-name="圖層 1"><path class="cls-1" d="M231.76,24.71c.85-3.06,1.78-6.09,2.52-9.18.38-1.59-.59-2.21-2-1.71-3.05,1.06-6.13,2.1-9.06,3.43C219.33,19,215.62,21,211.64,23c1,4,2,8.12,2.93,12.21a16.29,16.29,0,0,1,.56,4.42,2.88,2.88,0,0,1-1.49,2.18,2.57,2.57,0,0,1-2.25-1.2c-1-2.37-1.5-4.9-2.38-7.3-1.56-4.27-3.11-8.56-5-12.69-.75-1.66-.21-2.43.87-3.35s2.12-.48,3,.46l2.41,2.54c6.4-5.79,14-9.06,22-11.48,6.38-1.93,8.22-.22,6.9,6.4-1,5.1-2.71,10.07-4.08,15.1-.27,1-.85,2.24-.54,3.11.91,2.63-.44,3.91-2.28,5.39a27.17,27.17,0,0,0-7.75,9.72c2,.48,3.64,1,5.31,1.28,5.36,1,10.75,1.91,16.09,3a2.94,2.94,0,0,1,1.88,2,3.22,3.22,0,0,1-3,3.62,13.93,13.93,0,0,1-4.18-.51c-2.83-.66-5.64-1.42-8.44-2.19-1.9-.53-2.77-.09-2.69,2.08.23,5.81.36,11.62.44,17.43,0,1.85.31,4.35-2.41,4.35s-2-2.5-2.13-4.22c-.37-6-.62-12.08-1.12-18.11-.09-1.15-1.09-2.24-1.67-3.35A16.85,16.85,0,0,0,219,55.87a7.87,7.87,0,0,0-2.8,7.11c.47,3.78.94,7.56,1.36,11.34a16.08,16.08,0,0,1,.15,3.46c-.12,1.07-.09,2.33-1.85,2.43a2.1,2.1,0,0,1-2.54-2c-.57-3.43-1.11-6.86-1.67-10.29a9,9,0,0,0-.23-.93c-.22,0-.44-.1-.5,0-3.68,4.17-7.32,8.37-11,12.51a5.26,5.26,0,0,1-2.3,1.68c-.72.19-2.15-.15-2.33-.61a3.11,3.11,0,0,1,.49-2.58c8.4-10.7,16.87-21.35,25.3-32a15.47,15.47,0,0,0,1.23-2.46c-1.66-.26-3-.38-4.21-.71-.71-.18-1.86-.68-1.88-1.07a6.65,6.65,0,0,1,.8-2.89c.17-.36.82-.53,1.27-.73,3.54-1.55,3.77-2.25,1.9-6.21a26.41,26.41,0,0,1-3.74,1c-.61.08-1.75-.3-1.86-.69a3.15,3.15,0,0,1,.55-2.17,3.87,3.87,0,0,1,1.59-1.16c3.08-1.57,5-3.72,5.18-7.47.12-2.69,2-3.18,4.2-1.57a16,16,0,0,0,4,2.23c1.46.52,2.08,1.24,1.7,2.75C230.2,25.9,228.57,27,227,28.16c-.51.36-1.37.84-1.36,1.26,0,2.41.25,4.82.41,7.23l1.06.18C230.81,33.74,230.81,29,231.76,24.71Z"/><path class="cls-1" d="M514.82,40.11c2.5-1.25,4.47-2.27,6.48-3.21A6.66,6.66,0,0,1,524,36c2,.06,2.86,2,1.4,3.26A21.6,21.6,0,0,1,519,43.32c-3.32,1.2-5,3-4.88,6.61.16,5.46,0,10.93,0,16.3,5.44,0,10.71-.12,16,0,3.57.12,5.25,2.72,4.2,6-.59,1.83-2.05,2.57-3.44,1.45-4.63-3.71-9.78-2.68-14.8-1.78-6.21,1.12-12.33,2.69-18.48,4.06a6.71,6.71,0,0,1-1,.13c-1.53.12-3.5.79-3.87-1.44-.35-2.08,1.66-2.43,3.11-2.89,3.79-1.19,7.66-2.18,11.4-3.49A3.31,3.31,0,0,0,509,65.87c.17-5.22.05-10.45.11-15.67,0-1.67-.28-2.71-2.32-2.59a2.4,2.4,0,0,1-1.92-1.19,2.31,2.31,0,0,1,.63-2.14c5.88-2.46,4.28-7.68,4.58-12.14a35.64,35.64,0,0,0-.48-5.17c-2.71.81-5.23,1.41-7.6,2.38-.58.24-.85,1.66-1,2.58-.5,4.19-.9,8.39-1.36,12.58a3,3,0,0,1-.47,1.65c-.9.93-2,1.71-2.95,2.55-.5-1.09-1.41-2.17-1.44-3.27-.17-6.37,0-12.75-.27-19.11-.09-1.92-1.34-3.82-2.25-5.63-.61-1.23-2.05-2.38-.53-3.68a3.33,3.33,0,0,1,4.76.11,16.44,16.44,0,0,1,3.18,5.23c.62,1.68,1.31,2,2.89,1.48a30.56,30.56,0,0,1,5.26-1.5c2.34-.37,2.62-1.93,2.72-3.77a67.47,67.47,0,0,1,.53-7.41c.15-.85,1.37-1.51,2.1-2.25.62.83,1.61,1.6,1.76,2.51a30.22,30.22,0,0,1,.15,5.71c-.08,2.13.91,2.68,2.78,2.09,2.77-.86,5.51-1.88,8.32-2.6,1.49-.39,3.62-1.38,4.42.66s-1.39,3-2.9,3.64a80.46,80.46,0,0,1-9.9,3.32c-1.84.47-2.94,1.4-3,3.09C514.71,31.37,514.82,35.42,514.82,40.11Z"/><path class="cls-1" d="M132.59,72.34c-2.48,2-4.61,3.62-6.68,5.33s-4.11,3.33-6,5.14c-1.63,1.54-3.29,1.47-4.09-.6a17.53,17.53,0,0,1-1.13-5c-.66-9.92-1.2-19.86-1.8-29.79-.06-1.07-.36-2.13-.37-3.2,0-1.54.52-2.86,2.33-3s2,1.43,2.13,2.74c.51,3.85,1,7.7,1.51,11.82l12.2-8.69-.11-.22c-2.3,1-4.6,2.06-6.93,3a5.66,5.66,0,0,1-2.58.74,3.2,3.2,0,0,1-2.25-1.38,2.41,2.41,0,0,1,.86-2.22c4.07-2.2,8.25-4.2,12.37-6.33a4.29,4.29,0,0,0,1.83-2c-3.67.09-6.48,1.94-9.29,3.77-.56.37-1.06,1.11-1.6,1.13a15.42,15.42,0,0,1-3.18-.53c.25-.94.18-2.36.78-2.76,3.65-2.43,7.41-4.69,11.22-6.86a7.29,7.29,0,0,1,3.16-.55c3.72-.14,5.53,1.84,4.21,5.28-2,5.16-4.42,10.16-6.86,15.13-.79,1.61-2,3-4.4,2.24-.7-.24-1.73.31-2.54.66-.52.22-.85.83-1.36,1.08-5.63,2.8-5.69,7.66-4.85,12.89.25,1.52.41,3.05.72,5.36,2.86-1.92,5.28-3.41,7.55-5.1,1.17-.87,1-1.87-.25-2.81a8.24,8.24,0,0,1-2.7-2.82,3.74,3.74,0,0,1,.43-3.08c.37-.57,1.69-.77,2.54-.69a5.34,5.34,0,0,1,2.74,1.1c2.22,1.83,3.43.7,4.79-1.16a44.09,44.09,0,0,1,5-5.81c.72-.68,2.13-.66,3.22-1-.13,1.28.15,2.83-.47,3.8a73.85,73.85,0,0,1-4.83,6c-2,2.53-2,2.7.48,4.75,3.72,3,7.25,6.34,12,7.87.81.27,2,1.88,1.78,2.35-.44,1-1.63,2.44-2.57,2.48a9.7,9.7,0,0,1-5.17-1.23c-3.63-2.16-7-4.71-10.53-7.09C133.35,72.79,132.78,72.46,132.59,72.34Z"/><path class="cls-1" d="M417.83,42.27c-1.53.89-3.11,1.73-4.59,2.7s-2.75,1.34-4.05,0-.58-2.43.19-3.78C412,36.66,414.45,32,417,27.36l-.61-.56a14.93,14.93,0,0,1-3.44,2c-1,.28-2.19-.17-3.29-.3.28-1,.25-2.37.91-2.9,3.11-2.48,6.36-4.81,9.68-7,1-.65,2.39-.67,3.92-1.06.24,7.38-4.18,12.56-6.63,18.92,1.26-.2,2.12-.29,3-.46,3-.64,4.85.84,3.85,3.71-1.67,4.81-3.88,9.44-5.88,14.14-.58,1.35-1.22,2.67-1.9,4.17,2.64,1,5,2.08,7.4,2.89,8,2.68,16.07,5.27,24.1,7.91,1,.33,2,.83,3,1.16,1.73.55,2.78,1.87,1.88,3.34a4.7,4.7,0,0,1-3.7,2,43.71,43.71,0,0,1-8.1-2.35c-7.05-2.45-14.07-5-21.12-7.45-1.09-.38-2.26-.53-3.34-.94-2-.76-3.2-.21-4.31,1.6a3.33,3.33,0,0,1-2.8,1.22c-.6-.1-1.3-1.58-1.37-2.5-.12-1.49.11-2.86-1.59-3.77-1.22-.66-1-1.8,0-2.68a2.48,2.48,0,0,1,1.28-.72c4.13-.12,5.35-3.23,6.71-6.29,1.29-2.89,2.69-5.74,4-8.6Z"/><path class="cls-1" d="M342.92,54.27c1.06-5.53,2.33-10.75,3-16.05.46-3.82-.75-4.81-4.63-5.06a62.16,62.16,0,0,0-8.62-.25,8.43,8.43,0,0,0-4.2,1.89c-1.32,1-2.19.64-3.32-.09s-1.32-1.59-.77-2.91c2.71-6.5,5.39-13,7.91-19.58A44.32,44.32,0,0,0,333.68,6c.17-.71.21-1.62.67-2A3.42,3.42,0,0,1,336.7,3c.43,0,1.1,1.28,1,1.91a45.25,45.25,0,0,1-1.31,8.81c-1.23,4-3,7.87-4.58,11.8-.28.72-.51,1.47-.78,2.27,4.22,0,8.1,0,12,0,6.72.07,9.24,3.32,8.47,10.07a68.78,68.78,0,0,1-3.68,15.65c-2.2,6.11-3.63,12.5-5.56,18.72A4.1,4.1,0,0,1,340,74.78a3.18,3.18,0,0,1-2.8-1.42c-.4-1,0-2.45.35-3.61.8-2.59,1.91-5.1,2.61-7.72A2.69,2.69,0,0,0,339,59.79c-2.25-1-4.67-1.65-7-2.56A19.11,19.11,0,0,1,327.57,55a2.88,2.88,0,0,1-.9-2.56A2.75,2.75,0,0,1,328.88,51c3.51.51,7,1.29,10.44,2A34.22,34.22,0,0,1,342.92,54.27Z"/><path class="cls-1" d="M125.13,9.17c-.53,1-1,1.76-1.37,2.56A276.56,276.56,0,0,1,99.11,52.86c-2,2.76-4.11,5.44-6.28,8.06A6.2,6.2,0,0,1,90,63.22c-1.18.27-2.56-.37-3.85-.62.31-1,.37-2.12,1-2.81,1.73-2,4-3.52,5.51-5.62,6-8.34,12.17-16.61,17.6-25.32,3.84-6.15,6.58-13,9.86-19.47,1-2,.8-3.41-1.45-4.28a4,4,0,0,1-1.85-1.2A3.58,3.58,0,0,1,116,1.5,2.35,2.35,0,0,1,117.75,0c3.32.07,6.56-.68,9.51,2.48,2.82,3,6.72,5.14,10.4,7.2,5.58,3.1,11.41,5.74,17.06,8.73a6.6,6.6,0,0,1,2.65,2.86c.2.41-1,1.84-1.76,2.26-1.37.71-2.84,1.78-4.52.18a17.89,17.89,0,0,0-3.76-2.38c-6-3.33-12.09-6.62-18.13-9.93Z"/><path class="cls-1" d="M440.64,47.49c2.27-.34,4.57-.56,6.81-1.07a2.72,2.72,0,0,1,3.61,2.08c.37,1.24-1.65,3.53-3,3.7-4.44.56-8.88,1.16-13.33,1.71a20.35,20.35,0,0,1-3.73.21c-2.19-.13-3.5-1.09-3.43-3.6.12-4.39,0-8.8,0-13.2a5,5,0,0,1,.18-2.21,14.42,14.42,0,0,1,2-2.38c.64.82,1.7,1.56,1.84,2.45.55,3.52.79,7.08,1.19,10.62a5.46,5.46,0,0,0,.55,2.15,1.72,1.72,0,0,0,1.46.59c.34-.06.76-.77.8-1.22.5-5.17.88-10.35,1.39-15.52.35-3.59.85-7.17,1.37-11.5-2.49,1.27-4.32,2.17-6.12,3.12-1.46.77-3.26,2-4.39.25s.91-2.8,2.13-3.65c4.22-2.94,8.52-5.76,12.8-8.59A5.35,5.35,0,0,1,445,10.35a2.73,2.73,0,0,1,2.15.74,3,3,0,0,1,0,2.26,3.06,3.06,0,0,1-1.3,1.46c-2.61,1.53-3.11,3.87-3.22,6.7-.16,3.87-.82,7.72-1.26,11.59-.09.81-.15,1.62-.3,3.26,1.18-1.11,1.9-1.68,2.49-2.37,1.62-1.88,3.11-3.87,4.82-5.67a7.62,7.62,0,0,1,2.51-1.15c.4.91,1.23,1.9,1.1,2.74a7.82,7.82,0,0,1-1.66,3.53c-1.92,2.39-4.12,4.56-6,7-1.57,2-2.9,4.11-4.33,6.18Z"/><path class="cls-1" d="M308.93,56c-.42,4.36-.66,8.08-1.14,11.77-.65,5-2.5,6.64-7.47,6.82-2,.07-3.58.22-4.69,2.36-1,1.9-3,1.78-4.21-.07a7.11,7.11,0,0,1-1.22-3.42q-.56-10.9-.82-21.81a3.56,3.56,0,0,1,1.07-2.6,57,57,0,0,1,8.3-5.4c4-2,7.63-.42,9,3.91C308.59,50.45,308.6,53.58,308.93,56Zm-13.81,2.17c2.28-.79,4.63-1.5,6.9-2.43a2.35,2.35,0,0,0,1.27-3.67c-.77-1.31-1.84-3.41-2.85-3.45C295.89,48.46,292.94,53.74,295.12,58.18Zm2.61,11.07c4.82-.13,5.13-.42,5.63-4.88,0-.25.09-.49.11-.74.18-2.28-.32-2.76-2.49-2.22-1.36.34-2.67.94-4.05,1.18-3.1.53-2.15,2.78-2.09,4.64C294.9,69.37,296.36,69.47,297.73,69.25Z"/><path class="cls-1" d="M24.3,42.76c0-8.29,0-16.59,0-24.88,0-1.76-.52-4.21,2.48-4.12a3,3,0,0,1,2.2,1.6,12.5,12.5,0,0,1,.46,4.16c0,11-.1,22.08,0,33.11.06,5.3.57,10.58.8,15.88A14.54,14.54,0,0,1,30,73.18a3.25,3.25,0,0,1-2.33,1.93,3.13,3.13,0,0,1-2.4-1.81,24.74,24.74,0,0,1-.72-6.14c-.07-8.13,0-16.27,0-24.4Z"/><path class="cls-1" d="M394.54,27.68c-1.82-1.4-3.27-2.5-4.69-3.64-.52-.41-1.22-.81-1.42-1.36-.45-1.28-1.35-3.19-.82-3.88,1.1-1.4,3.1-1.17,4.42.11a30.7,30.7,0,0,1,4.73,5.41c1,1.62,1.92,1.7,3.42.93a6.53,6.53,0,0,1,2.79-.89,2.83,2.83,0,0,1,2.26,1,2.58,2.58,0,0,1-.4,2.42,20.47,20.47,0,0,1-4.92,3.71c-6,2.84-12.08,5.41-18.11,8.13-2.95,1.33-5.79,2.89-8.79,4.08-.94.38-2.23-.09-3.35-.18.38-1.08.46-2.55,1.22-3.16a28.85,28.85,0,0,1,5.19-2.91c4.82-2.4,9.68-4.73,14.5-7.15C391.65,29.73,392.61,29,394.54,27.68Z"/><path class="cls-1" d="M397.72,71.57c-1-1.41-.59-2.33-.21-3.76a6.73,6.73,0,0,0-.5-5c-.58-.83-2.95-.69-4.46-.52-1.78.2-3.48,1-5.26,1.37a3,3,0,0,0-2.71,3.5A52.2,52.2,0,0,0,386,74.65a2.37,2.37,0,0,0,3.45,1.78c1.73-.63,3.48-1.22,5.23-1.83l.24.65C398.22,75.22,399.36,73.84,397.72,71.57Zm-3.21-2.93a5,5,0,0,1-.23,1.34,3.76,3.76,0,0,1-2,1.85,3.57,3.57,0,0,1-1.45.46,7.92,7.92,0,0,1-1.68-.17.64.64,0,0,1-.49-.5.83.83,0,0,1-.1-.34c0-.13,0-.27,0-.4s0-.16,0-.24v0a4.89,4.89,0,0,0-.15-.78,14.66,14.66,0,0,0-.5-1.59.71.71,0,0,1,.32-.81.77.77,0,0,1,.34-.51,5.45,5.45,0,0,1,1.91-.71,8.11,8.11,0,0,1,1.84-.21,2,2,0,0,1,2.14,1.21A3.73,3.73,0,0,1,394.51,68.64Z"/><path class="cls-1" d="M59.14,55.17A16.21,16.21,0,0,1,56.32,54c-4.79-3.4-9.55-6.86-14.31-10.3a4.44,4.44,0,0,1-.59-.46C40.24,42,38.08,41,39.49,38.77S43,37.32,44.88,38A8.82,8.82,0,0,1,47,39.24c4.55,3.32,9.14,6.6,13.57,10.07.82.65,1.61,2.34,1.32,3.16C61.52,53.59,60.06,54.33,59.14,55.17Z"/><path class="cls-1" d="M293,21.81c3.55.25,6.88.3,10.15.81a5.6,5.6,0,0,1,3.51,2.27c.42.66-.34,2.35-1,3.31a2.88,2.88,0,0,1-2.33,1c-3.84-.56-7.65-1.32-11.47-2-1.88-.35-3.61-1.3-3.36-3.3s2.22-2.17,4-2.07A3.8,3.8,0,0,0,293,21.81Z"/><path class="cls-1" d="M6.21,55.21c-.45,2.78-1,6.13-1.55,9.46a4.82,4.82,0,0,1-.87,2.27c-.53.6-1.54,1.29-2.17,1.16S.56,66.87.07,66.17A.76.76,0,0,1,0,65.69c.51-5.43.93-10.87,1.64-16.27.12-.86,1.59-1.54,2.43-2.3.62.76,1.62,1.44,1.79,2.3A40,40,0,0,1,6.21,55.21Z"/><path class="cls-1" d="M131.29,29.38c0,2.82-1.49,3.81-3.25,2.73-2.68-1.65-5.34-3.36-7.9-5.18-1.11-.79-2.42-1.84-1.27-3.5s2.53-2.05,4.25-.84c2.24,1.57,4.54,3.07,6.69,4.75A7.5,7.5,0,0,1,131.29,29.38Z"/><path class="cls-1" d="M400.55,48.72c-.38.51-.8,1.55-1.58,2a97.74,97.74,0,0,1-8.68,4.81,2.57,2.57,0,0,1-2.34-.91c-.31-.79-.14-2.37.43-2.78a77.1,77.1,0,0,1,8.41-5.29C398.65,45.58,400.64,46.67,400.55,48.72Z"/><path class="cls-1" d="M390.91,46c-1.17-.84-2.34-1.27-2.6-2-.19-.54.67-1.73,1.36-2.22a38,38,0,0,1,6-3.51c.79-.35,2.61,0,2.89.52.43.86.38,2.8-.21,3.2A70.84,70.84,0,0,1,390.91,46Z"/></g></g></svg>