<svg xmlns="http://www.w3.org/2000/svg" width="11.51mm" height="10.23mm" viewBox="0 0 32.62 29"><defs><style>.cls-1{fill:#13284e;}</style></defs><g id="圖層_2" data-name="圖層 2"><g id="圖層_1-2" data-name="圖層 1"><path id="shopping-cart-solid" class="cls-1" d="M29.91,17.06,32.58,5.28a1.35,1.35,0,0,0-1-1.62,1.54,1.54,0,0,0-.3,0H9L8.5,1.09A1.36,1.36,0,0,0,7.17,0H1.36A1.36,1.36,0,0,0,0,1.36v.91A1.35,1.35,0,0,0,1.36,3.62h4l4,19.45a3.17,3.17,0,1,0,4.33,1.18,2.76,2.76,0,0,0-.53-.69H25a3.17,3.17,0,1,0,4.49,0,3.27,3.27,0,0,0-.89-.63l.32-1.38a1.36,1.36,0,0,0-1-1.62,1,1,0,0,0-.3,0H12.35L12,18.12h16.6A1.36,1.36,0,0,0,29.91,17.06Z"/></g></g></svg>