<svg xmlns="http://www.w3.org/2000/svg" width="29.74" height="26.66" viewBox="0 0 29.74 26.66"><defs><style>.cls-1{fill:none;}.cls-2{fill:#12284e;}</style></defs><g id="圖層_2" data-name="圖層 2"><g id="圖層_1-2" data-name="圖層 1"><g id="shopping-cart-solid"><path class="cls-1" d="M26.44,15.51l2.27-10a1.16,1.16,0,0,0-.87-1.38,1.07,1.07,0,0,0-.25,0H8.67L8.23,1.92A1.17,1.17,0,0,0,7.09,1H2.16A1.16,1.16,0,0,0,1,2.16H1v.77A1.15,1.15,0,0,0,2.16,4.08H5.52L8.9,20.62a2.7,2.7,0,1,0,3.69,1,2.4,2.4,0,0,0-.46-.59h10.1a2.7,2.7,0,1,0,3.82,0,2.65,2.65,0,0,0-.75-.54l.26-1.17A1.17,1.17,0,0,0,24.69,18a2.13,2.13,0,0,0-.25,0H11.5l-.31-1.54H25.31A1.16,1.16,0,0,0,26.44,15.51Z"/><path class="cls-2" d="M24.12,25.66a2.7,2.7,0,0,0,1.17-5.13l.27-1.16A1.16,1.16,0,0,0,24.43,18H11.51l-.32-1.54H25.31a1.16,1.16,0,0,0,1.13-.9l2.27-10a1.15,1.15,0,0,0-1.12-1.41H8.67L8.23,1.92A1.17,1.17,0,0,0,7.09,1H2.16A1.16,1.16,0,0,0,1,2.16v.77A1.16,1.16,0,0,0,2.16,4.08H5.52L8.91,20.62a2.7,2.7,0,1,0,3.22.42h10.1a2.69,2.69,0,0,0,1.89,4.62m0,1a3.7,3.7,0,0,1-3.7-3.7,3.52,3.52,0,0,1,.12-.92H13.83a4,4,0,0,1,.11.92A3.7,3.7,0,1,1,7.8,20.2L4.71,5.08H2.16A2.16,2.16,0,0,1,0,2.93V2.16A2.16,2.16,0,0,1,2.16,0H7.09A2.18,2.18,0,0,1,9.21,1.72l.27,1.36H27.59a2.15,2.15,0,0,1,1.68.81,2.19,2.19,0,0,1,.42,1.83l-2.28,10a2.11,2.11,0,0,1-1.7,1.64,2.52,2.52,0,0,1,.41.39,2.19,2.19,0,0,1,.42,1.83l-.12.48a3.69,3.69,0,0,1-2.3,6.59Z"/></g></g></g></svg>