<svg xmlns="http://www.w3.org/2000/svg" width="9.63mm" height="7.83mm" viewBox="0 0 27.3 22.2"><defs><style>.cls-1{fill:#fff;}</style></defs><g id="圖層_2" data-name="圖層 2"><g id="圖層_1-2" data-name="圖層 1"><path class="cls-1" d="M8.58,22.2A15.84,15.84,0,0,0,24.52,6.26c0-.24,0-.48,0-.72A11.36,11.36,0,0,0,27.3,2.63a11.13,11.13,0,0,1-3.22.89A5.65,5.65,0,0,0,26.55.42,11.26,11.26,0,0,1,23,1.77,5.6,5.6,0,0,0,13.3,5.6a6,6,0,0,0,.14,1.28A15.91,15.91,0,0,1,1.89,1,5.63,5.63,0,0,0,3.63,8.51a5.61,5.61,0,0,1-2.54-.7v.08a5.61,5.61,0,0,0,4.49,5.49,5.49,5.49,0,0,1-1.47.2,5.19,5.19,0,0,1-1.05-.1,5.59,5.59,0,0,0,5.23,3.89,11.22,11.22,0,0,1-7,2.4A11.73,11.73,0,0,1,0,19.7,16,16,0,0,0,8.58,22.2Z"/></g></g></svg>