<svg xmlns="http://www.w3.org/2000/svg" width="9.17mm" height="9.17mm" viewBox="0 0 26 25.99"><defs><style>.cls-1{fill:#fff;}</style></defs><g id="圖層_2" data-name="圖層 2"><g id="圖層_1-2" data-name="圖層 1"><path class="cls-1" d="M13,2.34c3.48,0,3.88,0,5.26.08a7.15,7.15,0,0,1,2.41.45,4,4,0,0,1,1.5,1,4.13,4.13,0,0,1,1,1.49,7.49,7.49,0,0,1,.45,2.42c.06,1.37.07,1.78.07,5.25s0,3.88-.07,5.25a7.22,7.22,0,0,1-.45,2.42,4.13,4.13,0,0,1-1,1.49,3.93,3.93,0,0,1-1.5,1,7.15,7.15,0,0,1-2.41.45c-1.38.06-1.78.08-5.26.08s-3.87,0-5.25-.08a7.15,7.15,0,0,1-2.41-.45,4,4,0,0,1-1.5-1,4.13,4.13,0,0,1-1-1.49,7.49,7.49,0,0,1-.45-2.42c-.06-1.37-.07-1.78-.07-5.25s0-3.88.07-5.25a7.22,7.22,0,0,1,.45-2.42,4.13,4.13,0,0,1,1-1.49,3.93,3.93,0,0,1,1.5-1,7.15,7.15,0,0,1,2.41-.45C9.12,2.35,9.53,2.34,13,2.34ZM13,0C9.47,0,9,0,7.63.08a9.51,9.51,0,0,0-3.15.6,6.39,6.39,0,0,0-2.3,1.5,6.52,6.52,0,0,0-1.5,2.3,9.52,9.52,0,0,0-.6,3.16C0,9,0,9.47,0,13s0,4,.08,5.36a9.52,9.52,0,0,0,.6,3.16,6.31,6.31,0,0,0,1.5,2.3,6.39,6.39,0,0,0,2.3,1.5,9.49,9.49,0,0,0,3.16.61C9,26,9.47,26,13,26s4,0,5.36-.07a9.55,9.55,0,0,0,3.16-.61,6.39,6.39,0,0,0,2.3-1.5,6.52,6.52,0,0,0,1.5-2.3,9.47,9.47,0,0,0,.6-3.16C26,17,26,16.53,26,13s0-4-.08-5.36a9.51,9.51,0,0,0-.6-3.15,6.31,6.31,0,0,0-1.5-2.3,6.26,6.26,0,0,0-2.3-1.5A9.49,9.49,0,0,0,18.36.07C17,0,16.52,0,13,0Z"/><path class="cls-1" d="M13,6.32A6.68,6.68,0,1,0,19.67,13,6.68,6.68,0,0,0,13,6.32Zm0,11A4.34,4.34,0,1,1,17.33,13,4.33,4.33,0,0,1,13,17.33Zm6.94-9.72a1.56,1.56,0,1,0-1.55-1.55A1.55,1.55,0,0,0,19.93,7.61Z"/></g></g></svg>