<svg xmlns="http://www.w3.org/2000/svg" width="117.52" height="118.54" viewBox="0 0 117.52 118.54"><defs><style>.cls-1{fill:#12284e;}</style></defs><g id="圖層_2" data-name="圖層 2"><g id="圖層_1-2" data-name="圖層 1"><path class="cls-1" d="M14.49,86.83a2.13,2.13,0,0,0,.7.44v29.3a2,2,0,0,0,2,2h90.52a2,2,0,0,0,2-2V69.34a2,2,0,0,0-2-2H97.83c2-2.6,4-5.74,4-7.87A7.87,7.87,0,0,0,88,54.3a7.87,7.87,0,0,0-13.77,5.2c0,2.13,2,5.27,4,7.87H36.73L45.1,59,59,45.08,86.85,17.25a2,2,0,0,0,0-2.78L72.94.55a2.05,2.05,0,0,0-2.79,0L51.81,18.89c-6.42-5-14.08-8.18-17.84-4.42-2.46,2.47-1.94,6.62.13,11l-8.6,8.59C21.12,32,17,31.48,14.49,34c-3.75,3.75-.61,11.42,4.43,17.84L.58,70.13a2,2,0,0,0,0,2.78ZM78.16,59.5a3.94,3.94,0,0,1,7.88,0V60A2,2,0,1,0,90,60V59.5a3.94,3.94,0,1,1,7.87,0,22.12,22.12,0,0,1-5.13,7.87H83.29A22.26,22.26,0,0,1,78.16,59.5Zm-5.9,11.81h33.46V114.6H72.26Zm-15.74,0h11.8V114.6H56.52Zm-3.94,0V114.6H19.13V85.08H19L32.9,71.2v.11ZM43.71,54.82,32.58,43.69,43.71,32.56,54.85,43.69ZM71.54,4.73,82.68,15.86l-25.05,25L46.5,29.78ZM36.75,17.25a2.33,2.33,0,0,1,1.68-.5c2.19,0,6,1.43,10.58,4.94l-6.69,6.69L41.2,29.51C36.44,23.34,35.49,18.51,36.75,17.25Zm-.66,11.81c.7,1.1,1.48,2.2,2.31,3.26l-6.07,6.06a39.31,39.31,0,0,0-3.26-2.3ZM17.27,36.73a2.34,2.34,0,0,1,1.67-.5c2.2,0,6,1.43,10.59,4.94L28.41,42.3,21.72,49C17,42.82,16,38,17.27,36.73ZM29.8,46.47,40.93,57.61l-25,25L4.76,71.52Z"/><path class="cls-1" d="M103.75,26.75A7.87,7.87,0,0,0,90,32c0,4.27,9.29,15.74,13.78,15.74S117.52,36.22,117.52,32a7.87,7.87,0,0,0-13.77-5.2Zm9.84,5.2c0,2.47-7.61,11.52-9.81,11.81-2.26-.3-9.83-9.35-9.87-11.81a3.94,3.94,0,1,1,7.87,0v.53a2,2,0,0,0,3.94,0V32a3.94,3.94,0,1,1,7.87,0Z"/><path class="cls-1" d="M103.75,6.37a2,2,0,0,0-2,2v2h-2a2,2,0,1,0,0,3.94h2v2a2,2,0,1,0,3.94,0v-2h2a2,2,0,0,0,0-3.94h-2v-2A2,2,0,0,0,103.75,6.37Z"/><path class="cls-1" d="M78.16,37.85a2,2,0,1,1-2-2A2,2,0,0,1,78.16,37.85Z"/><path class="cls-1" d="M60.45,63.44a2,2,0,0,0,2-2v-2h2a2,2,0,0,0,0-3.94h-2v-2a2,2,0,0,0-3.94,0v2h-2a2,2,0,0,0,0,3.94h2v2A2,2,0,0,0,60.45,63.44Z"/><path class="cls-1" d="M113.59,57.53a2,2,0,1,1-2-2A2,2,0,0,1,113.59,57.53Z"/></g></g></svg>