<svg xmlns="http://www.w3.org/2000/svg" width="137.39" height="134.98" viewBox="0 0 137.39 134.98"><defs><style>.cls-1{fill:#fff;}</style></defs><g id="圖層_2" data-name="圖層 2"><g id="圖層_1-2" data-name="圖層 1"><path class="cls-1" d="M105,79.94H55.37L82.78,64.66a6,6,0,0,0,2.3-8.1L81,49.24a6,6,0,0,0-8.11-2.3l-11.4,6.35A24.33,24.33,0,0,0,64,45.4a14.88,14.88,0,0,0-2.8-11.13A13.45,13.45,0,0,0,45,30.3,2,2,0,0,0,46.64,34,9.43,9.43,0,0,1,58,36.74c3.83,4.93,2.36,12.64-3.92,20.68l-2.43,1.36-1.76-3.16a7.51,7.51,0,0,0-1.73-2.1,25.37,25.37,0,0,1,2.94-8,2,2,0,0,0-3.44-2.09A29.5,29.5,0,0,0,44.4,51.8a7.54,7.54,0,0,0-4.9.87l-.7.39c-.28-5.81.62-10.67,2.65-14.18a2,2,0,1,0-3.48-2c-2.69,4.65-3.72,10.82-3.06,18.35l-2.43,1.36C22.21,49,12.16,47.38,5.42,52.44A13.48,13.48,0,0,0,1,68.2c2.29,5.73,8,9.21,15.93,10L5.21,84.65a6,6,0,0,0-2.3,8.1L7,100.08a6,6,0,0,0,8.1,2.3h0l13.15-7.33v32.78A7.16,7.16,0,0,0,35.4,135h67.31a7.15,7.15,0,0,0,7.14-7.15v-43A4.89,4.89,0,0,0,105,79.94ZM37.9,85.07l-6-10.7L50.1,64.25l6,10.7L47,80a1.87,1.87,0,0,0-.85.47ZM74.85,50.46a1.89,1.89,0,0,1,.94-.25,1.93,1.93,0,0,1,1.69,1l4.08,7.32a1.94,1.94,0,0,1-.75,2.63L59.58,73l-6-10.7ZM41.46,56.18a3.55,3.55,0,0,1,1.74-.45,3.83,3.83,0,0,1,1,.14,3.6,3.6,0,0,1,2.18,1.71l1.75,3.15L30,70.85l-1.76-3.16a3.62,3.62,0,0,1-.44-2s0,0,0-.06A3.93,3.93,0,0,1,27.9,65a3.56,3.56,0,0,1,1.71-2.16ZM4.69,66.7a9.44,9.44,0,0,1,3.15-11c4.93-3.7,12.56-2.52,20.75,3.09l-.93.52a7.61,7.61,0,0,0-3.29,3.62,40.6,40.6,0,0,0-8.46-1.67,2,2,0,0,0-.44,4,36.4,36.4,0,0,1,8.33,1.71,7.4,7.4,0,0,0,.9,2.72l1.76,3.16L24.26,74C14.27,75.13,7,72.4,4.69,66.7Zm8.45,32.16a2,2,0,0,1-2.63-.74L6.43,90.79a1.93,1.93,0,0,1,.74-2.62L25.79,77.8l.17-.1,2.46-1.37,6,10.7-5.06,2.82,0,0Zm19.14,29v-35L48.15,84h9.28v17.82a2,2,0,1,0,4,0V84H76.65v47H61.46V111.32a2,2,0,0,0-4,0V131h-22a3.12,3.12,0,0,1-3.12-3.12Zm73.55,0a3.12,3.12,0,0,1-3.12,3.12h-22V84H105a.87.87,0,0,1,.86.86Z"/><path class="cls-1" d="M97.59,34.85c0,.24,2.58,24.85-6,34.19a2,2,0,0,0,.12,2.85,2,2,0,0,0,1.36.53,2,2,0,0,0,1.48-.65c9.85-10.67,7.2-36.27,7.08-37.36a2,2,0,1,0-4,.44Z"/><path class="cls-1" d="M116,31.86a33.67,33.67,0,0,0-4.53,10.06,2,2,0,0,0,1.51,2.4,1.73,1.73,0,0,0,.45,0,2,2,0,0,0,2-1.56,30.75,30.75,0,0,1,4.06-8.87A26.51,26.51,0,0,1,135.84,22.3a2,2,0,0,0-.93-3.92A30.81,30.81,0,0,0,116,31.86Z"/><path class="cls-1" d="M74.72,20.8a3.05,3.05,0,0,1,0,.4l-.47,5.86a3,3,0,0,0,.93,2.87,3.1,3.1,0,0,0,3.11.08l5.38-2.24a1.07,1.07,0,0,1,.47,0L89.55,30a4.34,4.34,0,0,0,1.63.38,2.38,2.38,0,0,0,1.45-.47,3,3,0,0,0,.93-2.87l-.46-5.85a3.2,3.2,0,0,1,0-.41L97,16.09a3,3,0,0,0,.92-2.89,3,3,0,0,0-2.4-1.86L89.58,9.87,86.45,4.65a3.08,3.08,0,0,0-2.54-1.77h0a3.09,3.09,0,0,0-2.54,1.76h0l-3.1,5.17,0,0-6,1.47a3.05,3.05,0,0,0-2.4,1.86,3.07,3.07,0,0,0,.92,2.9Zm4.67-7.07A3.19,3.19,0,0,0,81.63,12L83.9,8.23l2.29,3.82a3.19,3.19,0,0,0,2.22,1.68l4.41,1.09L90,18.25a4.29,4.29,0,0,0-.9,3.27l.33,4.08-3.73-1.55a4.84,4.84,0,0,0-3.55,0L78.4,25.6l.33-4.08a4.41,4.41,0,0,0-.89-3.26L75,14.82Z"/><path class="cls-1" d="M136.35,62.36a2.64,2.64,0,0,0-1.48-4.75l-5.93-1.47-3.13-5.23a3.1,3.1,0,0,0-2.55-1.77h0a3.08,3.08,0,0,0-2.54,1.77l-3.11,5.18,0,0-5.93,1.47a2.64,2.64,0,0,0-1.48,4.75l3.91,4.71a3.05,3.05,0,0,1,0,.4l-.47,5.85a3,3,0,0,0,.94,2.88,3.11,3.11,0,0,0,3.1.08L123,74a1.24,1.24,0,0,1,.47,0l5.42,2.25a4.31,4.31,0,0,0,1.63.39A2.35,2.35,0,0,0,132,76.2a3,3,0,0,0,1-2.88l-.47-5.84a2,2,0,0,1,0-.41Zm-7,2.15a4.31,4.31,0,0,0-.9,3.28l.33,4.08L125,70.31a4.94,4.94,0,0,0-3.55,0l-3.74,1.56.33-4.09a4.21,4.21,0,0,0-.88-3.25l-2.86-3.44,4.42-1.1a3.18,3.18,0,0,0,2.23-1.7l2.28-3.8,2.19,3.66.08.14a3.16,3.16,0,0,0,2.23,1.7l4.41,1.1Z"/><path class="cls-1" d="M115.92,20.12a10.06,10.06,0,1,0-10.07-10A10.07,10.07,0,0,0,115.92,20.12Zm0-16.09a6,6,0,1,1-6,6A6,6,0,0,1,115.92,4Z"/></g></g></svg>