<svg xmlns="http://www.w3.org/2000/svg" width="31.55mm" height="31.55mm" viewBox="0 0 89.43 89.43"><defs><style>.cls-1{fill:#10284c;}</style></defs><g id="圖層_2" data-name="圖層 2"><g id="圖層_1-2" data-name="圖層 1"><path class="cls-1" d="M83.84,44.71H5.59A5.59,5.59,0,0,1,0,39.12V24.22a5.6,5.6,0,0,1,5.59-5.59H83.84a5.59,5.59,0,0,1,5.59,5.59v14.9A5.59,5.59,0,0,1,83.84,44.71ZM5.59,22.36a1.86,1.86,0,0,0-1.86,1.86v14.9A1.87,1.87,0,0,0,5.59,41H83.84a1.87,1.87,0,0,0,1.87-1.87V24.22a1.87,1.87,0,0,0-1.87-1.86Z"/><path class="cls-1" d="M72.67,89.43H16.77a9.33,9.33,0,0,1-9.32-9.31V42.85a1.87,1.87,0,0,1,3.73,0V80.12a5.6,5.6,0,0,0,5.59,5.59h55.9a5.59,5.59,0,0,0,5.58-5.59V42.85a1.87,1.87,0,0,1,3.73,0V80.12A9.33,9.33,0,0,1,72.67,89.43Z"/><path class="cls-1" d="M44.72,89.43a1.87,1.87,0,0,1-1.87-1.86V42.85a1.87,1.87,0,0,1,3.73,0V87.57A1.86,1.86,0,0,1,44.72,89.43Z"/><path class="cls-1" d="M44.72,22.36a1.92,1.92,0,0,1-.41-.05C42,21.79,30.09,19,27,15.9A9.32,9.32,0,0,1,40.12,2.72c3.14,3.14,5.89,15,6.42,17.37A1.89,1.89,0,0,1,46,21.81,1.86,1.86,0,0,1,44.72,22.36ZM33.54,3.73a5.59,5.59,0,0,0-4,9.54C31,14.72,37.09,16.67,42.2,18c-1.31-5.11-3.26-11.17-4.71-12.62A5.56,5.56,0,0,0,33.54,3.73Z"/><path class="cls-1" d="M44.72,22.36a1.88,1.88,0,0,1-1.83-2.27c.53-2.35,3.28-14.22,6.42-17.36a9.32,9.32,0,0,1,13.17,0,9.31,9.31,0,0,1,0,13.17c-3.13,3.14-15,5.89-17.36,6.41a1.83,1.83,0,0,1-.4.05ZM55.9,3.73a5.59,5.59,0,0,0-4,1.63c-1.45,1.45-3.4,7.51-4.71,12.61,5.11-1.3,11.17-3.26,12.62-4.71a5.58,5.58,0,0,0-4-9.53ZM50.63,4h0Z"/></g></g></svg>