<?xml version="1.0" encoding="utf-8"?>
<!-- Generator: Adobe Illustrator 25.3.1, SVG Export Plug-In . SVG Version: 6.00 Build 0)  -->
<svg version="1.1" id="圖層_1" xmlns="http://www.w3.org/2000/svg" xmlns:xlink="http://www.w3.org/1999/xlink" x="0px" y="0px"
	 viewBox="0 0 165 165" style="enable-background:new 0 0 165 165;" xml:space="preserve">
<style type="text/css">
	.st0{fill:#D06D43;}
	.st1{fill:#FFFFFF;}
	.st2{fill:none;stroke:#FFFFFF;stroke-width:1.5;}
</style>
<path class="st0" d="M162,78.4c-4.1-10.8-5.4-20.3-11.8-30.6c-5.9-9-11.3-15.8-18.6-23c-2.3-2.3-3.6-5-5.9-7.2
	c-6.8-5.9-14.9-11.7-24-12.6c-4.5-0.5-8.6,2.3-13.1,2.3c-4.5,0-9.1-1.8-14-1.8c-1.4,0-6.8,0.5-6.3,1.4c-10,0-18.6,0.5-27.6,5.4
	c-3.6,2.3-7.2,4.5-10.4,7.2c-3.2,3.2-5.9,5.9-9.1,9c-1.8,1.8-5,3.2-6.3,5.4c-1.4,2.3-1.4,5.4-2.7,7.7c-3.6,5.9-9.1,11.7-10,18.9
	c-1.4,8.1,5.4,11.3,5.9,18.5c0,6.3-1.4,13.1-0.5,19.4c0.5,2.7,2.3,5,3.6,8.1c1.8,4.1,1.4,7.7,0.9,12.2C10.8,130.2,29.3,140.6,37,146
	c8.6,6.3,12.2,9.9,23.1,9.9c2.7,0,5-0.9,7.7,0c1.4,0.5,2.7,1.4,4.5,1.8c5.9,0.9,10,2.3,15.8,0.4c11.8-4.1,25.8,0.5,36.2-5.9
	c4.5-2.7,9.5-3.6,13.1-7.7c2.7-3.6,5-6.3,8.6-9.5c6.8-5.4,10-16.2,13.1-24.3C163.3,99.1,166.1,90.1,162,78.4L162,78.4z"/>
<g>
	<path class="st1" d="M46,57.1L45.3,56c3.3-0.9,5.9-2.1,8.1-3.6V49h-5.8v2.6h-1.3V48h7.1v-1.1H47v-1.1H61v1.1h-6.3V48h7.1v3.6h-1.3
		V49h-5.8v3.5c1.9,1.4,4.6,2.6,8,3.5l-0.8,1.1c-1.9-0.6-3.5-1.2-5-2v0.7h-6v-0.7C49.4,55.9,47.8,56.5,46,57.1z M52.3,52.3
		c-0.8,0.3-2.2,0.6-4,0.7L48,52.2c1.8-0.1,3.2-0.3,4-0.6L52.3,52.3z M52.2,50.3l-0.3,0.8c-1.2-0.3-2.4-0.5-3.6-0.6l0.4-0.8
		C49.9,49.8,51.1,50,52.2,50.3z M54,60c1.1-0.6,2.2-1.2,3.1-2h-8.5v-1.1h10.3v0.9c-1.1,1-2.3,1.9-3.6,2.6c0.9,0.4,1.8,0.8,2.7,1.2
		l-0.7,1.1c-2.4-1.2-4.9-2.2-7.5-2.9l0.7-1C51.7,59.2,52.9,59.5,54,60z M54,53.3c-0.8,0.6-1.6,1.1-2.5,1.6h4.8
		C55.4,54.3,54.6,53.8,54,53.3z M59.9,52.2l-0.3,0.9c-1.3-0.3-2.5-0.6-3.9-0.8l0.4-0.8C57.4,51.7,58.7,51.9,59.9,52.2z M55.8,50.3
		c1.3-0.2,2.5-0.4,3.5-0.7l0.3,0.8c-1,0.3-2.2,0.6-3.6,0.8L55.8,50.3z"/>
	<path class="st1" d="M73.5,45.2c2.4,2.2,5.1,4,8.1,5.3l-0.7,1.2c-2-0.9-3.8-1.9-5.5-3.1v0.9h-4.9v-0.9c-1.6,1.2-3.5,2.3-5.5,3.3
		l-0.6-1.2c3.3-1.5,6-3.3,8.1-5.5H73.5z M67.5,61.5c0.4-0.1,0.6-0.5,0.6-1v-9.9h10v6.7h-8.6v3.8c1.5-0.3,2.9-0.6,4.3-1l0.3,1.2
		c-1.7,0.5-3.7,1-6.2,1.3L67.5,61.5z M76.7,51.8h-7.3v1.6h7.3V51.8z M69.5,56.1h7.3v-1.6h-7.3V56.1z M75.2,48.3
		c-0.8-0.6-1.5-1.2-2.2-1.9c-0.7,0.7-1.4,1.3-2.1,1.9H75.2z M80.3,57.5c-0.8,0.9-1.6,1.7-2.5,2.4c1.1,0.6,2.1,1.1,3.1,1.7l-0.9,1
		c-1.9-1.3-4.4-2.6-7.5-3.7l0.8-1c1.2,0.5,2.3,0.9,3.4,1.4c0.9-0.7,1.7-1.5,2.4-2.4L80.3,57.5z"/>
	<path class="st1" d="M86.1,54.2v-3.4h11.9v3.4h-1.6l-0.8,1.4h4.9v1.1H83.5v-1.1h4.9l-0.6-1.4H86.1z M91.3,48.7v-1.2h-7v-1.1h7v-1.2
		h1.3v1.2h7v1.1h-7v1.2h6.4v1.1H84.9v-1.1H91.3z M98.2,62.6h-1.3v-0.8h-9.8v0.8h-1.3v-4.7h12.5V62.6z M96.9,60.7V59h-9.8v1.7H96.9z
		 M96.6,51.8h-9.3v1.4h9.3V51.8z M89.3,54.2l0.6,1.4h4.3l0.8-1.4H89.3z"/>
	<path class="st1" d="M106.9,45c-0.2,1.3-0.5,2.6-0.7,3.7h3.3v0.8c-0.2,3-0.8,5.6-1.9,7.8c1.1,0.9,2,1.6,2.7,2.3l-0.9,1.1
		c-0.6-0.7-1.5-1.4-2.4-2.2c-1,1.6-2.2,2.9-3.6,4l-0.9-1.1c1.4-1,2.6-2.3,3.5-3.8c-0.9-0.7-1.9-1.4-2.9-2.2c0.6-1.7,1.1-3.5,1.6-5.4
		h-2v-1.3h2.3c0.3-1.3,0.5-2.5,0.7-3.8L106.9,45z M108.1,50.1h-2.2c-0.5,2-0.9,3.7-1.4,5c0.7,0.5,1.4,1,2,1.5
		C107.4,54.7,108,52.5,108.1,50.1z M114.4,53.1v-2.4c1-0.9,2-2,2.9-3.3h-6.7v-1.3h8.2v1.3c-0.9,1.3-2,2.5-3.1,3.7v2h3.9v1.3h-3.9
		v6.1c0,1.2-0.5,1.8-1.5,1.8h-2.7l-0.4-1.3c0.8,0,1.6,0,2.5,0c0.4,0,0.7-0.3,0.7-1v-5.7h-4.3v-1.3H114.4z"/>
	<path class="st1" d="M58.3,76.1c-0.4-1.2-1-2.4-1.6-3.5l2.1-0.6c0.6,1.3,1.1,2.5,1.4,3.6l-1.2,0.4h4.7v2h-10v-2H58.3z M62.7,97.7
		h-5.9v1.5h-2V89.1h7.9V97.7z M62.4,80.4v1.9H55v-1.9H62.4z M62.4,84.6v1.9H55v-1.9H62.4z M60.7,95.8V91h-3.8v4.8H60.7z M73.4,72.3
		c1.8,3.4,4.4,6.2,7.9,8.4l-1.2,1.8c-3.2-2-5.8-4.8-7.7-8.2c-2.1,3.4-4.5,6.1-7.3,8.2l-1.3-1.8c3.1-2.2,5.6-5,7.6-8.4H73.4z
		 M80.8,89.2c-3.6,5-9,8.5-16,10.6l-0.9-2c6.8-2,11.8-5.3,15.2-10L80.8,89.2z M78,84.3c-2.8,4.3-6.9,7.3-12.4,9.2l-0.8-1.9
		c5.2-1.7,9.1-4.6,11.6-8.5L78,84.3z M74.8,80.4c-2,3.3-4.9,5.7-8.8,7.1l-0.8-1.8c3.5-1.3,6.2-3.5,8-6.5L74.8,80.4z"/>
	<path class="st1" d="M86.7,96.9h12.2v1.8H84.8v-26h1.9v10.6H100v1.7H86.7V96.9z M93.6,82.3l-1.2,0.3c-0.1-0.4-0.2-0.7-0.2-1.1
		c-1.6,0.3-3.1,0.6-4.4,0.8l-0.3-1.2c0.7-0.5,1.6-1.6,2.6-3.4c-0.8,0.1-1.7,0.3-2.5,0.4L87.2,77c0.2-0.1,0.4-0.3,0.6-0.5
		c0.7-1.2,1.3-2.6,1.8-4.1l1.3,0.5c-0.7,1.7-1.3,3-2,4c0.7-0.1,1.3-0.2,1.9-0.3c0.4-0.7,0.8-1.5,1.2-2.3l1.3,0.5
		c-1.6,3-2.9,5-3.8,6.1c0.7-0.1,1.5-0.3,2.4-0.5c-0.1-0.6-0.3-1.2-0.4-1.7l1.1-0.4C93,79.5,93.3,80.8,93.6,82.3z M93.6,95.7L92.4,96
		c-0.1-0.4-0.2-0.7-0.2-1c-1.6,0.3-3.1,0.5-4.4,0.7l-0.3-1.2c0.7-0.5,1.6-1.6,2.7-3.6c-0.9,0.1-1.8,0.3-2.6,0.4l-0.4-1.3
		c0.2-0.1,0.4-0.3,0.6-0.5c0.7-1.2,1.3-2.5,1.8-4l1.3,0.5c-0.7,1.6-1.3,2.9-2,3.9c0.7-0.1,1.3-0.2,2-0.3c0.3-0.7,0.7-1.3,1-2
		l1.3,0.5c-1.6,3-2.8,5.1-3.8,6.1c0.7-0.1,1.5-0.3,2.4-0.4c-0.1-0.6-0.3-1.2-0.5-1.8l1.1-0.4C93,92.9,93.3,94.2,93.6,95.7z
		 M100.2,82.2L99,82.5c-0.1-0.4-0.2-0.8-0.2-1.2c-1.6,0.3-3,0.5-4.3,0.7l-0.3-1.2c0.7-0.4,1.5-1.6,2.5-3.3c-1,0.2-1.9,0.4-2.9,0.5
		l-0.4-1.3c0.2-0.1,0.4-0.3,0.6-0.6c0.7-1.1,1.4-2.4,1.9-3.9l1.4,0.5c-0.7,1.6-1.4,2.8-2.1,3.8c0.7-0.1,1.5-0.3,2.2-0.4
		c0.4-0.7,0.7-1.3,1-2l1.3,0.5c-1.5,2.9-2.8,4.9-3.7,5.9l2.4-0.4c-0.1-0.6-0.3-1.2-0.4-1.7l1.2-0.4C99.6,79.3,99.9,80.7,100.2,82.2z
		 M100.3,95.4l-1.2,0.3l-0.2-1c-1.6,0.3-3.2,0.6-4.6,0.8L94,94.3c0.7-0.5,1.6-1.6,2.6-3.4c-1,0.2-1.9,0.3-2.9,0.5l-0.4-1.3
		c0.2-0.1,0.4-0.3,0.6-0.5c0.8-1.1,1.4-2.4,2-3.9l1.3,0.5c-0.7,1.5-1.4,2.8-2.1,3.8c0.7-0.1,1.5-0.2,2.2-0.4c0.3-0.7,0.7-1.3,1-2
		l1.3,0.5C98.3,91,97,93,96.1,94c0.7-0.1,1.6-0.3,2.5-0.4c-0.2-0.6-0.4-1.1-0.5-1.6l1.2-0.4C99.7,92.6,100,93.9,100.3,95.4z
		 M111.1,74.1c-2.3,1.2-4.9,1.9-7.8,2.2V82h8v1.9h-2.7v15.7h-2V83.8h-3.4v4.8c-0.1,4.6-1,8.2-2.5,10.9l-1.4-1.5
		c1.3-2.3,2-5.4,2.1-9.5v-14c3.2-0.1,6.2-0.9,8.8-2.2L111.1,74.1z"/>
</g>
<g>
	<path class="st1" d="M50.8,119.1c0-0.4-0.2-0.7-0.5-0.9c-0.3-0.2-0.7-0.3-1.2-0.3c-0.4,0-0.7,0.1-0.9,0.2c-0.3,0.1-0.5,0.3-0.6,0.4
		c-0.1,0.2-0.2,0.4-0.2,0.6c0,0.2,0,0.4,0.1,0.5c0.1,0.1,0.2,0.3,0.4,0.4c0.2,0.1,0.3,0.2,0.5,0.2c0.2,0.1,0.4,0.1,0.6,0.2l0.9,0.2
		c0.4,0.1,0.7,0.2,1,0.3c0.3,0.1,0.6,0.3,0.9,0.5c0.3,0.2,0.5,0.5,0.6,0.8c0.2,0.3,0.2,0.7,0.2,1.1c0,0.6-0.1,1-0.4,1.5
		c-0.3,0.4-0.7,0.7-1.2,1c-0.5,0.2-1.2,0.4-1.9,0.4c-0.7,0-1.4-0.1-1.9-0.3c-0.5-0.2-1-0.6-1.3-1c-0.3-0.4-0.5-1-0.5-1.6H47
		c0,0.3,0.1,0.6,0.3,0.8c0.2,0.2,0.4,0.4,0.7,0.5c0.3,0.1,0.6,0.2,1,0.2c0.4,0,0.7-0.1,1-0.2c0.3-0.1,0.5-0.3,0.7-0.5
		c0.2-0.2,0.2-0.4,0.2-0.7c0-0.2-0.1-0.4-0.2-0.6c-0.1-0.2-0.3-0.3-0.6-0.4c-0.3-0.1-0.5-0.2-0.9-0.3l-1.1-0.3
		c-0.8-0.2-1.4-0.5-1.8-0.9c-0.4-0.4-0.7-1-0.7-1.6c0-0.6,0.2-1,0.5-1.5c0.3-0.4,0.7-0.7,1.2-1c0.5-0.2,1.1-0.4,1.8-0.4
		c0.7,0,1.3,0.1,1.8,0.4c0.5,0.2,0.9,0.6,1.2,1c0.3,0.4,0.4,0.9,0.4,1.4C52.4,119.1,50.8,119.1,50.8,119.1z"/>
	<polygon class="st1" points="58.8,118 58.8,116.5 66.4,116.5 66.4,118 63.5,118 63.5,126 61.8,126 61.8,118 	"/>
	<polygon class="st1" points="73.1,126 71.3,126 74.6,116.5 76.7,116.5 80.1,126 78.2,126 75.7,118.5 75.6,118.5 	"/>
	<rect x="73.2" y="122.3" class="st1" width="5" height="1.4"/>
	<path class="st1" d="M86.5,126v-9.5h3.5c0.7,0,1.3,0.1,1.8,0.4c0.5,0.3,0.9,0.6,1.1,1.1c0.3,0.5,0.4,1,0.4,1.6
		c0,0.6-0.1,1.1-0.4,1.6c-0.3,0.4-0.6,0.8-1.1,1c-0.5,0.2-1.1,0.4-1.8,0.4h-2.5v-1.4h2.3c0.4,0,0.8-0.1,1-0.2
		c0.3-0.1,0.5-0.3,0.6-0.5c0.1-0.2,0.2-0.5,0.2-0.8c0-0.3-0.1-0.6-0.2-0.9c-0.1-0.2-0.3-0.4-0.6-0.5c-0.3-0.1-0.6-0.2-1-0.2h-1.6v8
		H86.5z"/>
	<polygon class="st1" points="91.4,121.7 93.7,126 91.8,126 89.5,121.7 	"/>
	<polygon class="st1" points="99.7,118 99.7,116.5 107.3,116.5 107.3,118 104.4,118 104.4,126 102.7,126 102.7,118 	"/>
	<path class="st2" d="M121.3,126l4-4.5l-4-4.5 M117.3,121.5h7"/>
</g>
</svg>
