<svg xmlns="http://www.w3.org/2000/svg" width="77.97mm" height="13.02mm" viewBox="0 0 221.03 36.9"><defs><style>.cls-1{fill:#fff;}</style></defs><g id="圖層_2" data-name="圖層 2"><g id="圖層_1-2" data-name="圖層 1"><path class="cls-1" d="M106.32,17.3,106,15.8h-4.31c4.11,4.26,9,6.39,14.09,8.22-2,2.58-2.83,2.79-5.38,1.49a29.24,29.24,0,0,1-10.68-8.87c-1-1.37-1.86-1.28-2.86,0-1.34,1.74-2.78,3.4-4.21,5.15,2.19.16,1.62,1.81,1.69,3.24C94.7,32.8,88.7,36,83.37,36.88c-.16,0-.34-.11-.94-.32.81-.56,1.36-1,2-1.36,4.94-2.7,6.9-6.36,6.32-12.19-3.31,1.94-6.64,3.67-10.44,4L80,26.57a74.31,74.31,0,0,0,7.17-4.4,41,41,0,0,0,6-6.06c-1.74-.32-3.32-1.1-4.5.85-.35.57-1.57.62-2.58,1V3A6.32,6.32,0,0,1,88.9,3c6.58-.13,12,0,17.51,0,1.4,0,.36-1.14,1.77-.32.47.27,1.24-.17,1.24.32,0,3.56.1,7.85,0,11.4C109.41,16.8,108.92,17.28,106.32,17.3ZM96,10.2H89.49v3.11H96Zm10,3.11V10.22H99.49v3.09Zm0-5.5v-3H99.54v3ZM89.45,7.73H96V4.82H89.45Z"/><path class="cls-1" d="M60.89,31.42a19.67,19.67,0,0,1-2.23,1.16c-3.45,1.28-6.91,2.54-10.4,3.74-3,1-3.25.9-5.15-2.06a33.09,33.09,0,0,0,3.79-.71c.49-.14,1.18-.8,1.18-1.23.08-6.44.06-12.88.06-19.45L39.76,16l-.38-.74a18.59,18.59,0,0,1,1.75-1.19C46.51,11.23,51.39,7.76,55,2.75,55.61,1.91,56.14,1,56.79,0c1.11.86,2.39,1.18,2.93,2.93.39,1.25,2,2.36,3.26,3.08,3.53,2,7.19,3.68,10.81,5.48.64.32,1.32.54,2,.82-1.92,2.34-3.21,2.59-5.67,1.45A32.65,32.65,0,0,1,58.32,4.44l-2.6,2.8c2,1.49,5.6,1.41,4.61,5.56,1-.13,1.78-.27,2.61-.35a10.16,10.16,0,0,1,2.51-.16c1.53.22,2,1,1.7,2.71A61.25,61.25,0,0,0,67,22.91c0,2.39-.32,2.68-2.68,2.37A7.73,7.73,0,0,0,62,24.45c-3.44-.1-6.88,0-10.47,0v8.31l9.13-2Zm-9.3-14.08h12c.4-2.41.4-2.41-1.82-2.42H53.47C51.23,14.93,51.23,14.93,51.59,17.34Zm11.95,2.32c-3.62,0-7.18,0-10.73,0-1,0-1.45.31-1.44,1.37s.6,1.15,1.43,1.15c3,0,6-.09,9,0C63.67,22.26,64.18,21.59,63.54,19.66ZM55.22,7.77l-5.46,4,0,.64,8.17.52Z"/><path class="cls-1" d="M11.06,32.93h5.65V.93c3.36-.09,3.57.11,3.57,3q0,14.76,0,29.52a3.82,3.82,0,0,1-.39,2.29c-.55.61-1.8,1.33-2.35,1.09-2.26-1-4.36-2.3-6.53-3.5Z"/><path class="cls-1" d="M64.83,29.7c1.82,1,3.52,1.86,5.12,2.87a8.55,8.55,0,0,1,2.29,2.07,1.91,1.91,0,0,1,.13,1.79c-.29.39-1.15.45-1.77.46a2.23,2.23,0,0,1-1.15-.51Q62.21,31.65,55,26.89c-.23-.15-.38-.42-.39-1.06,1,.28,2,.55,3,.87.7.22,1.38.56,2.05.8A33.77,33.77,0,0,1,64.83,29.7Z"/><path class="cls-1" d="M8.8,10.38c3.4,1.53,3.63,1.78,1.51,4.9C7.73,19.07,4.8,22.63,2,26.25a3.17,3.17,0,0,1-2,1Z"/><path class="cls-1" d="M25,11.45c.36.13.82.15,1.06.4,2.94,3,5.93,6,8.71,9.22a5.8,5.8,0,0,1,1,3.4c.05,1.44-1.27,1.92-2.46,1a2.86,2.86,0,0,1-.65-.65q-4-6.48-8-13Z"/><path class="cls-1" d="M101.31,36.79V22c3-.18,3.3,0,3.3,2.82,0,3.12,0,6.25,0,9.37C104.59,36.5,103.81,37.11,101.31,36.79Z"/><path class="cls-1" d="M174.46,32.27l3.3-10.09h.38q1.86,5.07,3.73,10.14c.07,0,.16,0,.17-.05l2.55-7.65c.27-.84-.05-1.26-.89-1.41-.21,0-.39-.27-.58-.41a1.86,1.86,0,0,1,.68-.27c1.26,0,2.53,0,4,0-.24.33-.33.6-.45.61-.91.1-1.15.78-1.39,1.48l-3.81,11c-.14.38-.32.74-.48,1.1h-.28c-1.22-3.32-2.45-6.65-3.76-10.23l-3.56,10.23h-.3c-.12-.29-.26-.56-.36-.85q-1.83-5.51-3.67-11c-.24-.74-.4-1.56-1.39-1.72-.09,0-.15-.28-.27-.52H173l.11.21a4.37,4.37,0,0,0-.78.47c-.25.22-.68.58-.63.76.82,2.77,1.69,5.53,2.56,8.28Z"/><path class="cls-1" d="M135.3,3.1V9.62c.36-.3.64-.55.93-.78a3.09,3.09,0,0,1,3.34-.39A2.61,2.61,0,0,1,141,11c0,1.45,0,2.91,0,4.36,0,.67,0,1.36.92,1.51-.38.59-1.67.72-4,.44.19-.23.3-.48.46-.52.64-.15.77-.57.77-1.15,0-1.42,0-2.85,0-4.27,0-.79-.15-1.6-1.13-1.86a2.88,2.88,0,0,0-2.61.94,1.26,1.26,0,0,0-.12.61c0,1.46,0,2.91,0,4.37,0,.69.09,1.28.92,1.41-.3.62-1.53.77-3.79.48,0-.11,0-.31,0-.33,1.06-.43.94-1.37.95-2.22,0-3.06,0-6.13,0-9.19,0-.7-.17-1.22-1.08-1.12l0-.27Z"/><path class="cls-1" d="M217.92,27.39a30.91,30.91,0,0,0,0-3.18c0-.35-.56-.65-.94-1.05l2.82-1v4q0,4,0,8c0,.82,0,1.7,1.26,1.59a1.78,1.78,0,0,1-3.17-.38,3.24,3.24,0,0,1-3,1.13c-2-.3-3-1.49-3.27-3.88a4.8,4.8,0,0,1,3.66-5.4A12.19,12.19,0,0,1,217.92,27.39Zm0,4.39c0-.73,0-1.46,0-2.18a1.31,1.31,0,0,0-.82-1.36,2.14,2.14,0,0,0-3.14,1.1,6.17,6.17,0,0,0-.16,4.09,2.46,2.46,0,0,0,1.72,1.82,1.73,1.73,0,0,0,2.39-1.75Z"/><path class="cls-1" d="M127.77,25.72c-.18-.25-.37-.5-.54-.76a3.83,3.83,0,0,0-3.8-1.62,2,2,0,0,0-1,3.28,7.48,7.48,0,0,0,1.75,1.27c1,.57,2,1,3,1.62a3.71,3.71,0,0,1,1.76,4.22,3.66,3.66,0,0,1-3.39,2.71,9.26,9.26,0,0,1-5-.6c-.5-.2-.72-.46-.57-1a10.61,10.61,0,0,1,.56-2.08,5.8,5.8,0,0,1,.27.69c.37,1.43,1.63,2.18,3.59,2.11a2.37,2.37,0,0,0,2.49-2.06,2.17,2.17,0,0,0-1-2.34c-.81-.53-1.69-.95-2.53-1.44a20.3,20.3,0,0,1-1.84-1.15,3.32,3.32,0,0,1-1.32-3.7,3.62,3.62,0,0,1,3.13-2.4,16.82,16.82,0,0,1,2.45.12c.72.07,1.43.19,2.25.29v2.77Z"/><path class="cls-1" d="M158.63,23.19l2.92-1.05v9.45L165,28.18l-1.24-.37c.22-.53,1.93-.7,3.74-.38l-4.37,3.7,4.76,5.17a3.37,3.37,0,0,1-3.67-1.06l-2.48-3c-.53,1.47-.2,3.16.72,3.76-.33.5-2.08.66-3.82.33.06-.14.08-.35.17-.38.91-.28.9-1,.9-1.77,0-3.18,0-6.36,0-9.54,0-.77-.27-1.19-1.16-1.16Z"/><path class="cls-1" d="M124.56,4.4c-1.08.06-2.22-.17-3,.25S120.44,6.13,119.87,7V3.47h11.74l-.3,3.46c-.64-.88-1-1.95-1.79-2.31s-1.88-.09-3-.09V5.71c0,3,0,5.94,0,8.91,0,1.63.17,1.77,2,2.21-.43.26-.68.54-.93.55-1.57,0-3.15,0-4.73,0l-.14-.26a3.27,3.27,0,0,1,.77-.5,1.11,1.11,0,0,0,1-1.14Z"/><path class="cls-1" d="M130.38,28.14l2.88-1.21v1.68l.39.32a2.87,2.87,0,0,1,.3-.74,2.68,2.68,0,0,1,3.2-.81,2.75,2.75,0,0,1,1.8,2.7c.07,1.39,0,2.79,0,4.18,0,.71,0,1.42.94,1.76-1.22.69-2.52.2-3.87.47.11-.29.14-.55.23-.57.91-.25.88-1,.86-1.68-.05-1.42-.06-2.85-.21-4.25-.12-1.13-.7-1.53-1.7-1.44a1.93,1.93,0,0,0-2,1.82c0,1.36,0,2.73,0,4.09,0,.69.07,1.28.94,1.53-1.23.76-2.54.22-3.91.5.12-.33.14-.55.22-.57.94-.28.88-1.05.89-1.77,0-1.51,0-3,0-4.54,0-.77-.16-1.27-1.09-1.22Z"/><path class="cls-1" d="M148.94,36a1.74,1.74,0,0,1-3-.54,3.31,3.31,0,0,1-3.32,1,2,2,0,0,1-1.56-2.6,4.12,4.12,0,0,1,3.78-2.66c.82,0,1.3-.14,1.21-1.16-.12-1.35-.47-1.95-1.47-2s-1.38.4-1.55,1.41c-.05.31-.2.75-.43.85a1,1,0,0,1-1-.15,1.29,1.29,0,0,1-.18-1.14,3.79,3.79,0,0,1,1.29-1.32,4.17,4.17,0,0,1,3.77-.11,2.05,2.05,0,0,1,1.38,2.05c0,1.64,0,3.27,0,4.91C147.88,35.72,147.89,35.72,148.94,36ZM146,31.8c-1.73.1-2.62.67-3,1.75a1.36,1.36,0,0,0,.73,1.73c.72.27,2.13-.16,2.2-.77A22.16,22.16,0,0,0,146,31.8Z"/><path class="cls-1" d="M145.07,12.69c.07,1.48.45,2.72,1.82,3.39s2.51.07,3.68-.65a2.79,2.79,0,0,1-1.87,1.94,4.13,4.13,0,0,1-5.56-3.75,5.33,5.33,0,0,1,1.61-4.44,3.71,3.71,0,0,1,4.2-.72c1.48.67,1.84,2,2,3.42.05.56-.3.62-.75.63-1.36,0-2.73.09-4.09.13Zm3.81-1.1c0-1.7-.73-2.71-1.79-2.66s-2.11,1.39-2,3Z"/><path class="cls-1" d="M206.2,23.18l3-1.06V23c0,3.82,0,7.63,0,11.45,0,.69.09,1.3,1,1.3-.29.7-1.32.83-4,.56,0-.14,0-.38.11-.4,1.06-.31,1-1.2,1-2q0-4.63,0-9.27c0-.65,0-1.37-1.12-1.18Z"/><path class="cls-1" d="M157.39,34.23a3,3,0,0,1-3.13,2.35,3.85,3.85,0,0,1-3.74-2.28,5.25,5.25,0,0,1,.66-5.72,4,4,0,0,1,4.37-1.25A2.5,2.5,0,0,1,157.48,29c.19.59.18,1.21-.59,1.37s-1.09-.11-1.13-.89A1.33,1.33,0,0,0,154.63,28a1.91,1.91,0,0,0-2.06.84,5.29,5.29,0,0,0,.3,5.5,2.67,2.67,0,0,0,3.53.56C156.71,34.72,157,34.5,157.39,34.23Z"/><path class="cls-1" d="M202.43,36c-1.24.58-2.52.28-3.84.37,0-.21,0-.4.08-.42,1-.4.83-1.28.84-2.07,0-1.45,0-2.9,0-4.36,0-1,0-1-1.11-1.39l2.92-1.24v2c.37-.45.55-.7.75-.93a1.82,1.82,0,0,1,2.18-.67c.42.17.95.6,1,1s-.38.88-.62,1.35c-1.54-1.1-2.12-1.14-2.93-.25a1.42,1.42,0,0,0-.35.79c0,1.42,0,2.84,0,4.26A1.47,1.47,0,0,0,202.43,36Z"/><path class="cls-1" d="M190.65,29.29c.26,0,.6.41.87.41s.61-.41.87-.41h.06c.28.09.29.7.52.87s.83,0,1,.22-.19.74-.1,1,.67.47.67.76-.58.5-.67.77.26.78.1,1-.76,0-1,.22-.24.79-.52.88h-.06c-.26,0-.6-.41-.87-.41s-.61.41-.87.41h-.06c-.28-.09-.29-.71-.52-.88s-.83,0-1-.22.19-.74.1-1-.67-.47-.67-.77.58-.5.67-.76-.26-.78-.1-1,.76-.05,1-.22.24-.78.52-.87h.06m0-1.65h-.26l-.31.09a1.93,1.93,0,0,0-1.11.94,1.9,1.9,0,0,0-1.57,2.16,1.91,1.91,0,0,0-.55,1.34,1.94,1.94,0,0,0,.55,1.35,1.94,1.94,0,0,0,.34,1.4,2,2,0,0,0,1.23.76,2,2,0,0,0,1.11.93l.24.08h.33a2,2,0,0,1,1.74,0h.26l.31-.09a2,2,0,0,0,1.11-.93,2,2,0,0,0,1.23-.76,1.94,1.94,0,0,0,.34-1.4,1.94,1.94,0,0,0,.55-1.35,1.91,1.91,0,0,0-.55-1.34,1.9,1.9,0,0,0-1.57-2.16,1.93,1.93,0,0,0-1.11-.94l-.25-.08h-.32a2,2,0,0,1-1.74,0Z"/><circle class="cls-1" cx="191.52" cy="32.17" r="1.11"/><polygon class="cls-1" points="210.49 15.27 206.08 8.74 201.66 15.27 197.24 8.74 192.82 15.27 188.4 8.74 183.98 15.27 179.56 8.74 175.14 15.27 170.72 8.74 166.29 15.27 161.86 8.73 158.03 14.4 156.84 13.6 161.86 6.19 166.29 12.72 170.72 6.19 175.14 12.72 179.56 6.19 183.98 12.72 188.4 6.19 192.82 12.72 197.24 6.19 201.66 12.72 206.08 6.19 210.49 12.72 214.91 6.19 219.92 13.6 218.73 14.4 214.91 8.74 210.49 15.27"/><polyline class="cls-1" points="109.42 2.58 107.76 0.38 106.1 2.58 104.44 0.38 102.78 2.58 101.12 0.38 99.46 2.58 97.8 0.38 96.13 2.58 94.47 0.38 92.81 2.58 91.14 0.38 89.48 2.58 87.81 0.38 86.14 2.58"/><path class="cls-1" d="M68.29,24.7c.26,0,.6.41.87.41s.61-.41.87-.41h.06c.28.09.29.71.52.87s.82,0,1,.23-.18.73-.09,1,.67.47.67.77-.58.49-.67.76.26.78.09,1-.76.06-1,.23-.24.78-.52.87H70c-.26,0-.6-.41-.87-.41s-.61.41-.87.41h-.07c-.27-.09-.28-.71-.52-.87s-.82,0-1-.23.19-.73.1-1-.67-.47-.67-.76.58-.5.67-.77-.27-.78-.1-1,.76-.06,1-.23.25-.78.52-.87h.07m0-1.65H68l-.31.09a2,2,0,0,0-1.11.94A1.9,1.9,0,0,0,65,26.24a1.92,1.92,0,0,0,0,2.69,1.89,1.89,0,0,0,.34,1.4,1.94,1.94,0,0,0,1.23.76,2,2,0,0,0,1.11.94l.24.08h.33a2.07,2.07,0,0,0,.87-.2,2,2,0,0,0,.87.2h.26L70.6,32a2,2,0,0,0,1.11-.94,1.92,1.92,0,0,0,1.57-2.16,2,2,0,0,0,.55-1.34,2,2,0,0,0-.55-1.35,1.92,1.92,0,0,0-1.57-2.16,2,2,0,0,0-1.11-.94l-.25-.08H70a1.89,1.89,0,0,0-.87.21,1.93,1.93,0,0,0-.87-.21Z"/><circle class="cls-1" cx="69.16" cy="27.59" r="1.11"/><rect class="cls-1" x="86.14" y="2.58" width="23.28" height="0.53"/></g></g></svg>