<svg xmlns="http://www.w3.org/2000/svg" width="217.56" height="217.56" viewBox="0 0 217.56 217.56"><defs><style>.cls-1{fill:#16264f;}</style></defs><g id="圖層_2" data-name="圖層 2"><g id="圖層_1-2" data-name="圖層 1"><path class="cls-1" d="M142.73,114.35l54.3,54.3c.66-1,1.3-2,1.93-3l-53.79-53.78Z"/><path class="cls-1" d="M124.6,96.22,127,93.78,91.61,58.36a1.71,1.71,0,0,0-2.44,0L7,140.56c.38,1.23.79,2.44,1.22,3.65L90.39,62Z"/><path class="cls-1" d="M135.15,121.91l-.2.14Z"/><path class="cls-1" d="M116.91,104a1.37,1.37,0,0,1,.13-.2A1.37,1.37,0,0,0,116.91,104Z"/><path class="cls-1" d="M124.6,96.22l-7.43,7.43,0,0a1.71,1.71,0,0,1,2.47,0l15.7,15.7a1.71,1.71,0,0,1,0,2.47l0,0,7.43-7.43,2.44-2.43,56.15-56.15c-.59-1-1.2-2-1.83-3.05l-65.4,65.41-13.27-13.26,67.31-67.31c-.77-.86-1.55-1.7-2.34-2.53L127,93.78Z"/><path class="cls-1" d="M117,103.8a1.37,1.37,0,0,0-.13.2.21.21,0,0,0,0,.06l-9,16.81a1.73,1.73,0,0,1,2.74-.41l.9.91,7.27-13.64,12.41,12.41-13.64,7.27.91.9a1.76,1.76,0,0,1,.48,1.48,1.73,1.73,0,0,1-.89,1.26l16.82-9,0,0,.2-.14.11-.09a1.71,1.71,0,0,0,0-2.47l-15.7-15.7a1.71,1.71,0,0,0-2.47,0Z"/><path class="cls-1" d="M119,129.79a1.76,1.76,0,0,0-.48-1.48l-.91-.9-6-6-.9-.91a1.73,1.73,0,0,0-2.74.41h0l-7.13,13.38-1.84,3.44v0a1.72,1.72,0,0,0,1.52,2.51,1.76,1.76,0,0,0,.81-.2l16.82-9A1.73,1.73,0,0,0,119,129.79Zm-14.34,4.53,5.22-9.78,4.56,4.57Z"/><path class="cls-1" d="M136.82,8a2.24,2.24,0,0,1-.57-.08,104.84,104.84,0,0,0-10.83-2.33,2.15,2.15,0,0,1,.68-4.25A107.78,107.78,0,0,1,137.38,3.8,2.15,2.15,0,0,1,136.82,8Z"/><path class="cls-1" d="M108.78,217.56A108.78,108.78,0,0,1,31.86,31.86,108.09,108.09,0,0,1,108.78,0a2.15,2.15,0,1,1,0,4.3A104.48,104.48,0,0,0,34.91,182.66,104.49,104.49,0,0,0,197.51,53.59a105,105,0,0,0-41-37.8,2.15,2.15,0,1,1,2-3.82,108.79,108.79,0,0,1-49.65,205.59Z"/><path class="cls-1" d="M150,9.21a2.74,2.74,0,1,1-2.74-2.73A2.74,2.74,0,0,1,150,9.21Z"/><path class="cls-1" d="M81.06,172.27H52.94a4.64,4.64,0,0,1-4.63-4.63V139.52a4.64,4.64,0,0,1,4.63-4.64H81.06a4.64,4.64,0,0,1,4.64,4.64v28.12A4.64,4.64,0,0,1,81.06,172.27ZM52.94,137.88a1.63,1.63,0,0,0-1.63,1.64v28.12a1.63,1.63,0,0,0,1.63,1.63H81.06a1.64,1.64,0,0,0,1.64-1.63V139.52a1.64,1.64,0,0,0-1.64-1.64Z"/><rect class="cls-1" x="44.1" y="153.02" width="26" height="5.85" rx="2.93" transform="translate(109.57 -1.62) rotate(38.53)"/><rect class="cls-1" x="77.18" y="117.88" width="5.2" height="52.55" rx="2.6" transform="translate(107.16 -18.31) rotate(38.53)"/></g></g></svg>