<svg xmlns="http://www.w3.org/2000/svg" width="46.63" height="46.62" viewBox="0 0 46.63 46.62"><defs><style>.cls-1{fill:#12284e;}</style></defs><g id="圖層_2" data-name="圖層 2"><g id="圖層_1-2" data-name="圖層 1"><path class="cls-1" d="M23.3,4.2c6.23,0,7,0,9.42.14a12.76,12.76,0,0,1,4.33.8,7.31,7.31,0,0,1,2.68,1.74,7,7,0,0,1,1.74,2.69,12.69,12.69,0,0,1,.81,4.33c.11,2.46.14,3.19.14,9.41s0,7-.14,9.42a12.45,12.45,0,0,1-.81,4.33,7.07,7.07,0,0,1-1.74,2.68,7,7,0,0,1-2.68,1.74,12.69,12.69,0,0,1-4.33.81c-2.46.11-3.19.14-9.42.14s-6.95,0-9.41-.14a12.45,12.45,0,0,1-4.33-.81,7.1,7.1,0,0,1-2.69-1.74,7.19,7.19,0,0,1-1.74-2.68,13,13,0,0,1-.8-4.33c-.11-2.46-.14-3.19-.14-9.42s0-6.95.14-9.41a12.76,12.76,0,0,1,.8-4.33A7.35,7.35,0,0,1,6.87,6.88,7.22,7.22,0,0,1,9.56,5.14a13,13,0,0,1,4.33-.8C16.35,4.22,17.09,4.2,23.3,4.2Zm0-4.2C17,0,16.18,0,13.69.14A17.13,17.13,0,0,0,8,1.22,11.41,11.41,0,0,0,3.91,3.91,11.63,11.63,0,0,0,1.22,8,17.15,17.15,0,0,0,.14,13.7C0,16.18,0,17,0,23.3s0,7.13.14,9.62a17.31,17.31,0,0,0,1.08,5.66A11.38,11.38,0,0,0,3.91,42.7,11.66,11.66,0,0,0,8,45.4a17.15,17.15,0,0,0,5.66,1.08c2.49.11,3.28.14,9.61.14s7.13,0,9.61-.14a17.32,17.32,0,0,0,5.67-1.08,12,12,0,0,0,6.81-6.82,16.92,16.92,0,0,0,1.09-5.66c.11-2.49.14-3.28.14-9.62s0-7.12-.14-9.61A17,17,0,0,0,45.4,8,11.28,11.28,0,0,0,42.71,3.9a11.59,11.59,0,0,0-4.12-2.69A17.21,17.21,0,0,0,32.92.13C30.43,0,29.63,0,23.3,0Z"/><path class="cls-1" d="M23.3,11.34a12,12,0,1,0,12,12A12,12,0,0,0,23.3,11.34Zm0,19.73a7.77,7.77,0,1,1,7.77-7.77A7.77,7.77,0,0,1,23.3,31.07ZM35.75,13.66a2.8,2.8,0,1,0-2.8-2.8A2.8,2.8,0,0,0,35.75,13.66Z"/></g></g></svg>