<svg xmlns="http://www.w3.org/2000/svg" width="48.96" height="39.81" viewBox="0 0 48.96 39.81"><defs><style>.cls-1{fill:#12284e;}</style></defs><g id="圖層_2" data-name="圖層 2"><g id="圖層_1-2" data-name="圖層 1"><path class="cls-1" d="M15.38,39.81C33.86,39.81,44,24.49,44,11.23c0-.43,0-.87,0-1.3a20.52,20.52,0,0,0,5-5.21,20.61,20.61,0,0,1-5.78,1.59A10.12,10.12,0,0,0,47.61.74a19.92,19.92,0,0,1-6.39,2.43,10.05,10.05,0,0,0-17.38,6.88,10.86,10.86,0,0,0,.26,2.29A28.5,28.5,0,0,1,3.39,1.84,10.1,10.1,0,0,0,6.5,15.26,10.22,10.22,0,0,1,2,14v.14A10.07,10.07,0,0,0,10,24a9.56,9.56,0,0,1-2.64.35,10.43,10.43,0,0,1-1.88-.17,10,10,0,0,0,9.38,7A20.12,20.12,0,0,1,2.39,35.46,18.94,18.94,0,0,1,0,35.32,28.52,28.52,0,0,0,15.38,39.81Z"/></g></g></svg>