<svg xmlns="http://www.w3.org/2000/svg" width="132.84mm" height="73.84mm" viewBox="0 0 376.56 209.31"><defs><style>.cls-1{fill:#e0ccbb;}</style></defs><g id="圖層_2" data-name="圖層 2"><g id="圖層_1-2" data-name="圖層 1"><path class="cls-1" d="M376.56,35.56c.42,8.82-28,19.59-27.76,29.55-.41,10.44,4.29,14.08-3.4,18.72s-11.38,17.49-9.79,22.41-13.25,6.7-14.42,10.6c-1.82,4.39-.91,13.86-5.81,15.44-5.56,2.06-14.85,1.79-16.67,6.17-1.17,3.9,1.67,16-13,12.58-14.81-2.29-7.76,12.8-13.48,16-5.08,2.72-13.51-3.25-17.61.78s-6.62,13-10.21,13.59-12.67-4.88-15.47-1.81c-2.13,2.59-7.09,12.32-10.68,12.93-2.94.13-12.2-4.21-16.78-.84-4.11,4-9,9.69-12.46,9.16s-11.85-6.5-15.78-3.61c-4.42,2.24-9,9.69-13.59,9s-11.85-6.5-15.61-4.75c-3.11,1.27-10.49,7.71-13.43,7.84-3.41-.53-9.88-7.94-13.47-7.33s-13.08,5.56-16.32,3.9-5.64-9-9.71-9.09-10.12,1.35-15-1.15-12.3-11.23-14.1-10.93c-2.27-.35-15.49,2.27-17.12,1.44S41.26,175.67,35.25,173s-34-10.51-35.2-21.78,20.45,11.33,25,8,8.75-15.57,4.57-22.63,5.75-7.28,10.89-18.15-4.81-10.66,1.91-16.62,14.45-14.69,13.38-23C54.1,70.9,69.23,75,72,71.92s4.17-12.19,6.3-14.78,4.08,0,13.05-1.48,8.41-13.29,9.24-14.91c1-2.76,3.59-.61,11.25-1.18C119,38.35,123,31.38,126.63,26.69l1.31-1c2.45-.78,6.18,1.54,8.46,1.9a11.84,11.84,0,0,0,8.8-.39,15.47,15.47,0,0,0,7.55-7.59c1.83-4.38,3.62-4.69,7.36-2.36a17.67,17.67,0,0,0,4.38,1.84c2.77,1,6.18,1.54,9-1.53,4.93-5.65,4.19-16.26,16.84-7.31,3.73,2.33,7.63,3.51,11.56.62C204.5,9,205.18,4.41,208.46,2c3.93-2.89,11.68,7.64,17.06,6.72,4.9-1.57,11-11.13,15.22-8.15s10.65,14.48,23.1,5.32c12.94-8.5,11.19,7,17.06,6.72,6.35.4,14.39-6.52,16.81-3.23,3.08,2.81,4.33,10,8.23,11.19,6.67,2.19,12.71.79,18.43-2.4,5.08-2.72,6.15,5.61,7.44,8.73,1.76,3.77,4.52,4.78,7.77,6.45,3.9,1.19,8.63.75,13.36.31C367.47,30.08,376.31,25.61,376.56,35.56Z"/></g></g></svg>