<svg xmlns="http://www.w3.org/2000/svg" width="106.62mm" height="95.45mm" viewBox="0 0 302.24 270.58"><defs><style>.cls-1{fill:#e0ccbb;}</style></defs><g id="圖層_2" data-name="圖層 2"><g id="圖層_1-2" data-name="圖層 1"><path class="cls-1" d="M208.16,0,.91,177.88s-1.7,4.12-.45,6.6c0,0,6.34,11.46,14.13,15.44a26.28,26.28,0,0,0,4.21.83L226.05,22.88a2.37,2.37,0,0,0,.63-2.32c-.44-.51-14.07-16.38-17.14-20A2.37,2.37,0,0,0,208.16,0Zm37.78,18.38L108.19,254.21s-.26,4.46,1.73,6.39c0,0,9.74,8.76,18.4,10a25.65,25.65,0,0,0,4.25-.59L270.32,34.16a2.35,2.35,0,0,0-.16-2.4L247.44,18.49a2.38,2.38,0,0,0-1.5-.11Z"/><path class="cls-1" d="M76.24,239.45,300.85,84.07S303,80.14,302,77.54c0,0-5.12-12.05-12.45-16.82a26.57,26.57,0,0,0-4.1-1.27L60.82,214.84a2.33,2.33,0,0,0-.86,2.24l15,21.64a2.38,2.38,0,0,0,1.31.73Z"/></g></g></svg>